<svg xmlns="http://www.w3.org/2000/svg" xmlns:xlink="http://www.w3.org/1999/xlink" width="120" zoomAndPan="magnify" viewBox="0 0 90 89.999999" height="120" preserveAspectRatio="xMidYMid meet" version="1.0"><defs><clipPath id="1b9097e376"><path d="M 33 30.605469 L 57 30.605469 L 57 59.105469 L 33 59.105469 Z M 33 30.605469 " clip-rule="nonzero"/></clipPath><clipPath id="48b1683d0f"><path d="M 25.308594 35 L 26 35 L 26 52 L 25.308594 52 Z M 25.308594 35 " clip-rule="nonzero"/></clipPath><clipPath id="7affa1861c"><path d="M 16.445312 22.679688 L 73.445312 22.679688 L 73.445312 71.429688 L 16.445312 71.429688 Z M 16.445312 22.679688 " clip-rule="nonzero"/></clipPath></defs><g clip-path="url(#1b9097e376)"><path fill="#a052cc" d="M 55.859375 41.621094 L 55.859375 33.277344 C 55.859375 33.105469 55.722656 32.964844 55.550781 32.964844 C 55.375 32.964844 55.238281 33.105469 55.238281 33.277344 L 55.238281 39.867188 C 53.9375 36.996094 51.464844 34.761719 48.429688 33.785156 L 48.429688 32.542969 C 48.429688 32.371094 48.289062 32.230469 48.117188 32.230469 C 47.945312 32.230469 47.804688 32.371094 47.804688 32.542969 L 47.804688 33.601562 C 46.90625 33.371094 45.964844 33.246094 44.996094 33.246094 C 44.804688 33.246094 44.617188 33.25 44.429688 33.261719 L 44.429688 30.917969 C 44.429688 30.746094 44.289062 30.605469 44.117188 30.605469 C 43.945312 30.605469 43.804688 30.746094 43.804688 30.917969 L 43.804688 33.308594 C 43.386719 33.355469 42.976562 33.421875 42.574219 33.511719 L 42.574219 32.257812 C 42.574219 32.082031 42.4375 31.945312 42.261719 31.945312 C 42.089844 31.945312 41.953125 32.082031 41.953125 32.257812 L 41.953125 33.667969 C 40.414062 34.101562 39.007812 34.851562 37.816406 35.847656 L 37.816406 34.808594 C 37.816406 34.636719 37.675781 34.496094 37.503906 34.496094 C 37.332031 34.496094 37.191406 34.636719 37.191406 34.808594 L 37.191406 36.410156 C 35.9375 37.621094 34.964844 39.117188 34.382812 40.796875 L 34.382812 37.917969 C 34.382812 37.746094 34.242188 37.605469 34.070312 37.605469 C 33.894531 37.605469 33.757812 37.746094 33.757812 37.917969 L 33.757812 49.957031 C 33.757812 50.128906 33.894531 50.269531 34.070312 50.269531 C 34.242188 50.269531 34.382812 50.128906 34.382812 49.957031 L 34.382812 48.171875 C 35 49.949219 36.050781 51.527344 37.414062 52.773438 L 37.414062 54.027344 C 37.414062 54.199219 37.554688 54.339844 37.726562 54.339844 C 37.898438 54.339844 38.039062 54.199219 38.039062 54.027344 L 38.039062 53.300781 C 39.304688 54.300781 40.789062 55.035156 42.410156 55.417969 L 42.410156 57.40625 C 42.410156 57.578125 42.550781 57.71875 42.722656 57.71875 C 42.894531 57.71875 43.035156 57.578125 43.035156 57.40625 L 43.035156 55.546875 C 43.570312 55.640625 44.121094 55.699219 44.683594 55.714844 L 44.683594 59.0625 C 44.683594 59.234375 44.820312 59.375 44.996094 59.375 C 45.167969 59.375 45.304688 59.234375 45.304688 59.0625 L 45.304688 55.714844 C 46.167969 55.691406 47.003906 55.574219 47.804688 55.367188 L 47.804688 56.480469 C 47.804688 56.652344 47.945312 56.792969 48.117188 56.792969 C 48.289062 56.792969 48.429688 56.652344 48.429688 56.480469 L 48.429688 55.183594 C 48.953125 55.015625 49.460938 54.808594 49.949219 54.566406 L 49.949219 55.496094 C 49.949219 55.667969 50.089844 55.808594 50.261719 55.808594 C 50.433594 55.808594 50.574219 55.667969 50.574219 55.496094 L 50.574219 54.230469 C 52.617188 53.058594 54.257812 51.261719 55.238281 49.097656 L 55.238281 56.289062 C 55.238281 56.460938 55.375 56.601562 55.546875 56.601562 C 55.722656 56.601562 55.859375 56.460938 55.859375 56.289062 L 55.859375 47.347656 C 56.101562 46.433594 56.230469 45.472656 56.230469 44.484375 C 56.230469 43.496094 56.101562 42.535156 55.859375 41.621094 Z M 44.996094 55.097656 C 39.140625 55.097656 34.382812 50.335938 34.382812 44.484375 C 34.382812 38.632812 39.140625 33.871094 44.996094 33.871094 C 50.847656 33.871094 55.609375 38.632812 55.609375 44.484375 C 55.609375 50.335938 50.847656 55.097656 44.996094 55.097656 Z M 44.996094 55.097656 " fill-opacity="1" fill-rule="nonzero"/></g><path fill="#a052cc" d="M 44.996094 34.496094 C 39.484375 34.496094 35.003906 38.976562 35.003906 44.484375 C 35.003906 49.992188 39.484375 54.472656 44.996094 54.472656 C 50.503906 54.472656 54.984375 49.992188 54.984375 44.484375 C 54.984375 38.976562 50.503906 34.496094 44.996094 34.496094 Z M 44.996094 53.847656 C 39.832031 53.847656 35.628906 49.648438 35.628906 44.484375 C 35.628906 39.320312 39.832031 35.121094 44.996094 35.121094 C 50.15625 35.121094 54.359375 39.320312 54.359375 44.484375 C 54.359375 49.648438 50.15625 53.847656 44.996094 53.847656 Z M 44.996094 53.847656 " fill-opacity="1" fill-rule="nonzero"/><path fill="#a052cc" d="M 44.996094 46.910156 C 46.613281 46.910156 47.929688 45.59375 47.929688 43.976562 L 47.929688 38.617188 C 47.929688 37 46.613281 35.683594 44.996094 35.683594 C 43.375 35.683594 42.058594 37 42.058594 38.617188 L 42.058594 43.976562 C 42.058594 45.59375 43.375 46.910156 44.996094 46.910156 Z M 42.683594 40.820312 L 47.304688 40.820312 L 47.304688 41.738281 L 42.683594 41.738281 Z M 44.996094 36.308594 C 46.269531 36.308594 47.304688 37.34375 47.304688 38.617188 L 47.304688 40.195312 L 42.683594 40.195312 L 42.683594 38.617188 C 42.683594 37.34375 43.71875 36.308594 44.996094 36.308594 Z M 42.683594 42.363281 L 47.304688 42.363281 L 47.304688 43.976562 C 47.304688 45.25 46.269531 46.285156 44.996094 46.285156 C 43.722656 46.285156 42.683594 45.25 42.683594 43.976562 Z M 42.683594 42.363281 " fill-opacity="1" fill-rule="nonzero"/><path fill="#a052cc" d="M 49.800781 40.902344 C 49.207031 40.902344 48.726562 41.386719 48.726562 41.980469 L 48.726562 43.722656 C 48.726562 44.71875 48.335938 45.65625 47.632812 46.363281 C 46.929688 47.066406 45.992188 47.453125 44.996094 47.453125 C 44.996094 47.453125 44.992188 47.453125 44.992188 47.453125 C 43.996094 47.453125 43.058594 47.066406 42.355469 46.363281 C 41.652344 45.65625 41.261719 44.71875 41.261719 43.722656 L 41.261719 41.980469 C 41.261719 41.386719 40.78125 40.902344 40.183594 40.902344 C 39.589844 40.902344 39.109375 41.386719 39.109375 41.980469 L 39.109375 43.53125 C 39.109375 46.191406 40.863281 48.488281 43.40625 49.195312 L 43.40625 50.414062 L 41.871094 50.414062 C 41.699219 50.414062 41.558594 50.554688 41.558594 50.726562 L 41.558594 52.289062 C 41.558594 52.460938 41.699219 52.601562 41.871094 52.601562 L 48.117188 52.601562 C 48.289062 52.601562 48.429688 52.460938 48.429688 52.289062 L 48.429688 50.726562 C 48.429688 50.554688 48.289062 50.414062 48.117188 50.414062 L 46.582031 50.414062 L 46.582031 49.195312 C 49.125 48.488281 50.878906 46.191406 50.878906 43.53125 L 50.878906 41.980469 C 50.878906 41.386719 50.398438 40.902344 49.800781 40.902344 Z M 50.253906 43.53125 C 50.253906 45.984375 48.585938 48.089844 46.199219 48.648438 C 46.058594 48.683594 45.957031 48.808594 45.957031 48.953125 L 45.957031 50.726562 C 45.957031 50.898438 46.097656 51.039062 46.269531 51.039062 L 47.804688 51.039062 L 47.804688 51.976562 L 42.183594 51.976562 L 42.183594 51.039062 L 43.71875 51.039062 C 43.890625 51.039062 44.03125 50.898438 44.03125 50.726562 L 44.03125 48.953125 C 44.03125 48.808594 43.929688 48.683594 43.789062 48.648438 C 41.402344 48.089844 39.734375 45.984375 39.734375 43.53125 L 39.734375 41.980469 C 39.734375 41.730469 39.9375 41.527344 40.1875 41.527344 C 40.4375 41.527344 40.640625 41.730469 40.640625 41.980469 L 40.640625 43.722656 C 40.640625 44.886719 41.09375 45.980469 41.914062 46.804688 C 42.738281 47.625 43.832031 48.078125 44.996094 48.078125 C 46.160156 48.078125 47.253906 47.625 48.074219 46.804688 C 48.898438 45.980469 49.351562 44.886719 49.351562 43.722656 L 49.351562 41.980469 C 49.351562 41.730469 49.554688 41.527344 49.804688 41.527344 C 50.054688 41.527344 50.257812 41.730469 50.257812 41.980469 L 50.257812 43.53125 Z M 50.253906 43.53125 " fill-opacity="1" fill-rule="nonzero"/><path fill="#a052cc" d="M 34.070312 50.808594 C 33.894531 50.808594 33.757812 50.949219 33.757812 51.121094 L 33.757812 53.941406 C 33.757812 54.113281 33.894531 54.253906 34.070312 54.253906 C 34.242188 54.253906 34.382812 54.113281 34.382812 53.941406 L 34.382812 51.121094 C 34.382812 50.949219 34.242188 50.808594 34.070312 50.808594 Z M 34.070312 50.808594 " fill-opacity="1" fill-rule="nonzero"/><path fill="#a052cc" d="M 32.738281 32.839844 C 32.5625 32.839844 32.425781 32.980469 32.425781 33.152344 L 32.425781 56.363281 C 32.425781 56.535156 32.5625 56.675781 32.738281 56.675781 C 32.910156 56.675781 33.046875 56.535156 33.046875 56.363281 L 33.046875 33.152344 C 33.046875 32.980469 32.910156 32.839844 32.738281 32.839844 Z M 32.738281 32.839844 " fill-opacity="1" fill-rule="nonzero"/><path fill="#a052cc" d="M 31.421875 34.710938 C 31.246094 34.710938 31.109375 34.851562 31.109375 35.023438 L 31.109375 38.523438 C 31.109375 38.695312 31.246094 38.835938 31.421875 38.835938 C 31.59375 38.835938 31.730469 38.695312 31.730469 38.523438 L 31.730469 35.023438 C 31.730469 34.851562 31.59375 34.710938 31.421875 34.710938 Z M 31.421875 34.710938 " fill-opacity="1" fill-rule="nonzero"/><path fill="#a052cc" d="M 31.421875 39.730469 C 31.246094 39.730469 31.109375 39.871094 31.109375 40.042969 L 31.109375 51.394531 C 31.109375 51.566406 31.246094 51.707031 31.421875 51.707031 C 31.59375 51.707031 31.730469 51.566406 31.730469 51.394531 L 31.730469 40.042969 C 31.730469 39.871094 31.59375 39.730469 31.421875 39.730469 Z M 31.421875 39.730469 " fill-opacity="1" fill-rule="nonzero"/><path fill="#a052cc" d="M 31.421875 52.515625 C 31.246094 52.515625 31.109375 52.65625 31.109375 52.828125 L 31.109375 54.492188 C 31.109375 54.664062 31.246094 54.804688 31.421875 54.804688 C 31.59375 54.804688 31.730469 54.664062 31.730469 54.492188 L 31.730469 52.828125 C 31.730469 52.65625 31.59375 52.515625 31.421875 52.515625 Z M 31.421875 52.515625 " fill-opacity="1" fill-rule="nonzero"/><path fill="#a052cc" d="M 30.140625 37.320312 C 29.96875 37.320312 29.828125 37.457031 29.828125 37.632812 L 29.828125 50.285156 C 29.828125 50.457031 29.96875 50.597656 30.140625 50.597656 C 30.3125 50.597656 30.453125 50.457031 30.453125 50.285156 L 30.453125 37.632812 C 30.453125 37.457031 30.3125 37.320312 30.140625 37.320312 Z M 30.140625 37.320312 " fill-opacity="1" fill-rule="nonzero"/><path fill="#a052cc" d="M 28.9375 34.710938 C 28.765625 34.710938 28.625 34.851562 28.625 35.023438 L 28.625 54.492188 C 28.625 54.664062 28.765625 54.804688 28.9375 54.804688 C 29.109375 54.804688 29.25 54.664062 29.25 54.492188 L 29.25 35.023438 C 29.25 34.851562 29.109375 34.710938 28.9375 34.710938 Z M 28.9375 34.710938 " fill-opacity="1" fill-rule="nonzero"/><path fill="#a052cc" d="M 27.785156 39.597656 C 27.613281 39.597656 27.472656 39.734375 27.472656 39.910156 L 27.472656 48.542969 C 27.472656 48.714844 27.613281 48.855469 27.785156 48.855469 C 27.957031 48.855469 28.097656 48.714844 28.097656 48.542969 L 28.097656 39.910156 C 28.097656 39.734375 27.957031 39.597656 27.785156 39.597656 Z M 27.785156 39.597656 " fill-opacity="1" fill-rule="nonzero"/><g clip-path="url(#48b1683d0f)"><path fill="#a052cc" d="M 25.640625 35.683594 C 25.46875 35.683594 25.328125 35.824219 25.328125 35.996094 L 25.328125 51.121094 C 25.328125 51.292969 25.46875 51.433594 25.640625 51.433594 C 25.8125 51.433594 25.953125 51.292969 25.953125 51.121094 L 25.953125 35.996094 C 25.953125 35.824219 25.8125 35.683594 25.640625 35.683594 Z M 25.640625 35.683594 " fill-opacity="1" fill-rule="nonzero"/></g><path fill="#a052cc" d="M 26.632812 41.453125 C 26.460938 41.453125 26.320312 41.589844 26.320312 41.761719 L 26.320312 46.324219 C 26.320312 46.496094 26.460938 46.636719 26.632812 46.636719 C 26.804688 46.636719 26.945312 46.496094 26.945312 46.324219 L 26.945312 41.761719 C 26.945312 41.589844 26.804688 41.453125 26.632812 41.453125 Z M 26.632812 41.453125 " fill-opacity="1" fill-rule="nonzero"/><path fill="#a052cc" d="M 56.925781 36.21875 C 56.753906 36.21875 56.613281 36.359375 56.613281 36.53125 L 56.613281 52.289062 C 56.613281 52.460938 56.753906 52.601562 56.925781 52.601562 C 57.097656 52.601562 57.238281 52.460938 57.238281 52.289062 L 57.238281 36.53125 C 57.238281 36.359375 57.097656 36.21875 56.925781 36.21875 Z M 56.925781 36.21875 " fill-opacity="1" fill-rule="nonzero"/><path fill="#a052cc" d="M 57.9375 40.195312 C 57.765625 40.195312 57.625 40.335938 57.625 40.507812 L 57.625 47.203125 C 57.625 47.375 57.765625 47.515625 57.9375 47.515625 C 58.109375 47.515625 58.25 47.375 58.25 47.203125 L 58.25 40.507812 C 58.25 40.335938 58.109375 40.195312 57.9375 40.195312 Z M 57.9375 40.195312 " fill-opacity="1" fill-rule="nonzero"/><path fill="#a052cc" d="M 60.019531 41.074219 C 59.847656 41.074219 59.707031 41.214844 59.707031 41.386719 L 59.707031 46.203125 C 59.707031 46.378906 59.847656 46.515625 60.019531 46.515625 C 60.191406 46.515625 60.332031 46.378906 60.332031 46.203125 L 60.332031 41.386719 C 60.332031 41.214844 60.191406 41.074219 60.019531 41.074219 Z M 60.019531 41.074219 " fill-opacity="1" fill-rule="nonzero"/><path fill="#a052cc" d="M 61.101562 37.554688 C 60.933594 37.558594 60.789062 37.691406 60.785156 37.863281 C 60.585938 51.972656 60.75 52.140625 60.871094 52.261719 C 60.929688 52.320312 61.015625 52.359375 61.097656 52.359375 C 61.269531 52.359375 61.410156 52.21875 61.410156 52.046875 C 61.410156 52 61.398438 51.953125 61.382812 51.914062 C 61.269531 51.160156 61.335938 43.152344 61.410156 37.871094 C 61.414062 37.699219 61.273438 37.558594 61.101562 37.554688 Z M 61.101562 37.554688 " fill-opacity="1" fill-rule="nonzero"/><path fill="#a052cc" d="M 62.226562 40.851562 C 62.054688 40.851562 61.914062 40.992188 61.914062 41.164062 L 61.914062 46.203125 C 61.914062 46.375 62.054688 46.515625 62.226562 46.515625 C 62.398438 46.515625 62.539062 46.375 62.539062 46.203125 L 62.539062 41.164062 C 62.539062 40.992188 62.398438 40.851562 62.226562 40.851562 Z M 62.226562 40.851562 " fill-opacity="1" fill-rule="nonzero"/><path fill="#a052cc" d="M 63.269531 35.273438 C 63.097656 35.273438 62.957031 35.414062 62.957031 35.585938 L 62.957031 53.753906 C 62.957031 53.925781 63.097656 54.066406 63.269531 54.066406 C 63.441406 54.066406 63.582031 53.925781 63.582031 53.753906 L 63.582031 35.585938 C 63.582031 35.414062 63.441406 35.273438 63.269531 35.273438 Z M 63.269531 35.273438 " fill-opacity="1" fill-rule="nonzero"/><path fill="#a052cc" d="M 64.347656 33.558594 C 64.175781 33.558594 64.035156 33.699219 64.035156 33.871094 L 64.035156 40.726562 C 64.035156 40.898438 64.175781 41.039062 64.347656 41.039062 C 64.519531 41.039062 64.660156 40.898438 64.660156 40.726562 L 64.660156 33.871094 C 64.660156 33.699219 64.519531 33.558594 64.347656 33.558594 Z M 64.347656 33.558594 " fill-opacity="1" fill-rule="nonzero"/><path fill="#a052cc" d="M 64.347656 41.636719 C 64.175781 41.636719 64.035156 41.777344 64.035156 41.949219 L 64.035156 49.546875 C 64.035156 49.71875 64.175781 49.859375 64.347656 49.859375 C 64.519531 49.859375 64.660156 49.71875 64.660156 49.546875 L 64.660156 41.949219 C 64.660156 41.777344 64.519531 41.636719 64.347656 41.636719 Z M 64.347656 41.636719 " fill-opacity="1" fill-rule="nonzero"/><path fill="#a052cc" d="M 64.347656 50.632812 C 64.175781 50.632812 64.035156 50.773438 64.035156 50.945312 L 64.035156 56.917969 C 64.035156 57.089844 64.175781 57.230469 64.347656 57.230469 C 64.519531 57.230469 64.660156 57.089844 64.660156 56.917969 L 64.660156 50.945312 C 64.660156 50.773438 64.519531 50.632812 64.347656 50.632812 Z M 64.347656 50.632812 " fill-opacity="1" fill-rule="nonzero"/><path fill="#a052cc" d="M 58.992188 34.367188 C 58.820312 34.367188 58.679688 34.503906 58.679688 34.675781 L 58.679688 41.386719 C 58.679688 41.558594 58.820312 41.699219 58.992188 41.699219 C 59.164062 41.699219 59.304688 41.558594 59.304688 41.386719 L 59.304688 34.675781 C 59.304688 34.503906 59.164062 34.367188 58.992188 34.367188 Z M 58.992188 34.367188 " fill-opacity="1" fill-rule="nonzero"/><path fill="#a052cc" d="M 58.992188 42.441406 C 58.820312 42.441406 58.679688 42.582031 58.679688 42.753906 L 58.679688 46.488281 C 58.679688 46.660156 58.820312 46.800781 58.992188 46.800781 C 59.164062 46.800781 59.304688 46.660156 59.304688 46.488281 L 59.304688 42.753906 C 59.304688 42.582031 59.164062 42.441406 58.992188 42.441406 Z M 58.992188 42.441406 " fill-opacity="1" fill-rule="nonzero"/><path fill="#a052cc" d="M 58.992188 47.394531 C 58.820312 47.394531 58.679688 47.535156 58.679688 47.707031 L 58.679688 51.640625 C 58.679688 51.8125 58.820312 51.953125 58.992188 51.953125 C 59.164062 51.953125 59.304688 51.8125 59.304688 51.640625 L 59.304688 47.707031 C 59.304688 47.535156 59.164062 47.394531 58.992188 47.394531 Z M 58.992188 47.394531 " fill-opacity="1" fill-rule="nonzero"/><path fill="#a052cc" d="M 58.992188 52.691406 C 58.820312 52.691406 58.679688 52.832031 58.679688 53.003906 L 58.679688 54.777344 C 58.679688 54.949219 58.820312 55.089844 58.992188 55.089844 C 59.164062 55.089844 59.304688 54.949219 59.304688 54.777344 L 59.304688 53.003906 C 59.304688 52.828125 59.164062 52.691406 58.992188 52.691406 Z M 58.992188 52.691406 " fill-opacity="1" fill-rule="nonzero"/><g clip-path="url(#7affa1861c)"><path fill="#a052cc" d="M 22.15625 71.148438 C 21.816406 71.148438 21.5 70.957031 21.347656 70.648438 C 21.175781 70.3125 21.234375 69.90625 21.484375 69.628906 C 24.164062 66.679688 26.074219 64.125 26.621094 61.398438 C 20.15625 57.21875 16.464844 51.128906 16.464844 44.613281 C 16.464844 38.707031 19.464844 33.167969 24.914062 29.023438 C 30.289062 24.933594 37.421875 22.679688 45 22.679688 C 52.574219 22.679688 59.710938 24.933594 65.085938 29.023438 C 70.535156 33.167969 73.535156 38.707031 73.535156 44.613281 C 73.535156 50.519531 70.535156 56.054688 65.085938 60.199219 C 59.710938 64.292969 52.574219 66.542969 45 66.542969 C 43.078125 66.542969 41.152344 66.394531 39.273438 66.101562 C 35.058594 68.804688 29.636719 70.410156 22.246094 71.144531 C 22.21875 71.148438 22.1875 71.148438 22.15625 71.148438 Z M 45 24.496094 C 30.265625 24.496094 18.28125 33.519531 18.28125 44.613281 C 18.28125 50.65625 21.855469 56.332031 28.09375 60.179688 C 28.398438 60.367188 28.5625 60.714844 28.515625 61.066406 C 28.128906 64.070312 26.355469 66.726562 24.398438 69.066406 C 30.46875 68.253906 35.011719 66.75 38.570312 64.390625 C 38.761719 64.265625 38.992188 64.214844 39.21875 64.253906 C 41.113281 64.566406 43.058594 64.726562 45 64.726562 C 59.730469 64.726562 71.71875 55.703125 71.71875 44.613281 C 71.71875 33.519531 59.730469 24.496094 45 24.496094 Z M 45 24.496094 " fill-opacity="1" fill-rule="nonzero"/></g></svg>