<svg xmlns="http://www.w3.org/2000/svg" xmlns:xlink="http://www.w3.org/1999/xlink" width="1200" zoomAndPan="magnify" viewBox="0 0 900 449.999984" height="600" preserveAspectRatio="xMidYMid meet" version="1.0"><defs><g/><clipPath id="178c8f62d7"><path d="M 393 153.03125 L 507 153.03125 L 507 297 L 393 297 Z M 393 153.03125 " clip-rule="nonzero"/></clipPath><clipPath id="806225b448"><path d="M 351.535156 178 L 355 178 L 355 258 L 351.535156 258 Z M 351.535156 178 " clip-rule="nonzero"/></clipPath><clipPath id="4b58e0a7c4"><path d="M 545 167 L 548.785156 167 L 548.785156 206 L 545 206 Z M 545 167 " clip-rule="nonzero"/></clipPath><clipPath id="56b043f752"><path d="M 545 208 L 548.785156 208 L 548.785156 250 L 545 250 Z M 545 208 " clip-rule="nonzero"/></clipPath><clipPath id="ea7b94de8c"><path d="M 545 253 L 548.785156 253 L 548.785156 287 L 545 287 Z M 545 253 " clip-rule="nonzero"/></clipPath><clipPath id="a69c468784"><path d="M 307.230469 113.398438 L 592.980469 113.398438 L 592.980469 355.648438 L 307.230469 355.648438 Z M 307.230469 113.398438 " clip-rule="nonzero"/></clipPath></defs><g clip-path="url(#178c8f62d7)"><path fill="#a052cc" d="M 504.335938 208.109375 L 504.335938 166.386719 C 504.335938 165.523438 503.636719 164.824219 502.777344 164.824219 C 501.914062 164.824219 501.214844 165.523438 501.214844 166.386719 L 501.214844 199.351562 C 494.710938 184.980469 482.34375 173.8125 467.171875 168.929688 L 467.171875 162.710938 C 467.171875 161.851562 466.472656 161.152344 465.609375 161.152344 C 464.75 161.152344 464.050781 161.851562 464.050781 162.710938 L 464.050781 168.011719 C 459.558594 166.851562 454.847656 166.234375 449.996094 166.234375 C 449.046875 166.234375 448.101562 166.257812 447.167969 166.304688 L 447.167969 154.589844 C 447.167969 153.730469 446.46875 153.03125 445.605469 153.03125 C 444.742188 153.03125 444.042969 153.730469 444.042969 154.589844 L 444.042969 166.550781 C 441.957031 166.773438 439.910156 167.117188 437.898438 167.558594 L 437.898438 161.28125 C 437.898438 160.417969 437.199219 159.71875 436.339844 159.71875 C 435.476562 159.71875 434.777344 160.417969 434.777344 161.28125 L 434.777344 168.347656 C 427.089844 170.511719 420.066406 174.261719 414.089844 179.238281 L 414.089844 174.039062 C 414.089844 173.175781 413.390625 172.476562 412.53125 172.476562 C 411.667969 172.476562 410.96875 173.175781 410.96875 174.039062 L 410.96875 182.050781 C 404.703125 188.109375 399.84375 195.597656 396.917969 203.996094 L 396.917969 189.59375 C 396.917969 188.730469 396.21875 188.03125 395.359375 188.03125 C 394.496094 188.03125 393.796875 188.730469 393.796875 189.59375 L 393.796875 249.800781 C 393.796875 250.664062 394.496094 251.363281 395.359375 251.363281 C 396.21875 251.363281 396.917969 250.664062 396.917969 249.800781 L 396.917969 240.871094 C 400.015625 249.761719 405.277344 257.644531 412.085938 263.878906 L 412.085938 270.160156 C 412.085938 271.019531 412.785156 271.71875 413.648438 271.71875 C 414.507812 271.71875 415.207031 271.019531 415.207031 270.160156 L 415.207031 266.519531 C 421.539062 271.527344 428.964844 275.199219 437.070312 277.113281 L 437.070312 287.058594 C 437.070312 287.921875 437.769531 288.621094 438.628906 288.621094 C 439.492188 288.621094 440.191406 287.921875 440.191406 287.058594 L 440.191406 277.757812 C 442.878906 278.230469 445.628906 278.511719 448.433594 278.589844 L 448.433594 295.339844 C 448.433594 296.203125 449.132812 296.902344 449.996094 296.902344 C 450.855469 296.902344 451.554688 296.203125 451.554688 295.339844 L 451.554688 278.589844 C 455.855469 278.472656 460.039062 277.886719 464.046875 276.851562 L 464.046875 282.421875 C 464.046875 283.28125 464.746094 283.980469 465.609375 283.980469 C 466.46875 283.980469 467.171875 283.28125 467.171875 282.421875 L 467.171875 275.9375 C 469.792969 275.089844 472.335938 274.058594 474.777344 272.855469 L 474.777344 277.496094 C 474.777344 278.355469 475.476562 279.054688 476.339844 279.054688 C 477.199219 279.054688 477.898438 278.355469 477.898438 277.496094 L 477.898438 271.179688 C 488.121094 265.304688 496.324219 256.316406 501.214844 245.511719 L 501.214844 281.472656 C 501.214844 282.332031 501.914062 283.03125 502.773438 283.03125 C 503.636719 283.03125 504.335938 282.332031 504.335938 281.472656 L 504.335938 236.757812 C 505.542969 232.183594 506.195312 227.382812 506.195312 222.433594 C 506.195312 217.480469 505.542969 212.683594 504.335938 208.109375 Z M 449.996094 275.507812 C 420.726562 275.507812 396.917969 251.699219 396.917969 222.433594 C 396.917969 193.164062 420.726562 169.355469 449.996094 169.355469 C 479.261719 169.355469 503.070312 193.164062 503.070312 222.433594 C 503.070312 251.699219 479.261719 275.507812 449.996094 275.507812 Z M 449.996094 275.507812 " fill-opacity="1" fill-rule="nonzero"/></g><path fill="#a052cc" d="M 449.996094 172.476562 C 422.449219 172.476562 400.042969 194.886719 400.042969 222.433594 C 400.042969 249.976562 422.449219 272.386719 449.996094 272.386719 C 477.539062 272.386719 499.949219 249.976562 499.949219 222.433594 C 499.949219 194.886719 477.539062 172.476562 449.996094 172.476562 Z M 449.996094 269.265625 C 424.171875 269.265625 403.164062 248.253906 403.164062 222.433594 C 403.164062 196.609375 424.171875 175.601562 449.996094 175.601562 C 475.816406 175.601562 496.828125 196.609375 496.828125 222.433594 C 496.828125 248.253906 475.816406 269.265625 449.996094 269.265625 Z M 449.996094 269.265625 " fill-opacity="1" fill-rule="nonzero"/><path fill="#a052cc" d="M 449.996094 234.5625 C 458.089844 234.5625 464.671875 227.980469 464.671875 219.886719 L 464.671875 193.101562 C 464.671875 185.007812 458.085938 178.425781 449.996094 178.425781 C 441.902344 178.425781 435.316406 185.007812 435.316406 193.101562 L 435.316406 219.886719 C 435.316406 227.980469 441.902344 234.5625 449.996094 234.5625 Z M 438.441406 204.105469 L 461.550781 204.105469 L 461.550781 208.703125 L 438.441406 208.703125 Z M 449.996094 181.546875 C 456.367188 181.546875 461.550781 186.730469 461.550781 193.101562 L 461.550781 200.984375 L 438.441406 200.984375 L 438.441406 193.101562 C 438.441406 186.730469 443.621094 181.546875 449.996094 181.546875 Z M 438.441406 211.824219 L 461.550781 211.824219 L 461.550781 219.886719 C 461.550781 226.257812 456.367188 231.441406 449.996094 231.441406 C 443.625 231.441406 438.441406 226.257812 438.441406 219.886719 Z M 438.441406 211.824219 " fill-opacity="1" fill-rule="nonzero"/><path fill="#a052cc" d="M 474.039062 204.523438 C 471.070312 204.523438 468.65625 206.941406 468.65625 209.910156 L 468.65625 218.628906 C 468.65625 223.613281 466.710938 228.296875 463.1875 231.820312 C 459.664062 235.34375 454.980469 237.285156 449.996094 237.285156 C 449.996094 237.285156 449.992188 237.285156 449.992188 237.285156 C 445.007812 237.285156 440.324219 235.34375 436.796875 231.820312 C 433.273438 228.296875 431.332031 223.613281 431.332031 218.628906 L 431.332031 209.910156 C 431.332031 206.941406 428.917969 204.523438 425.945312 204.523438 C 422.976562 204.523438 420.5625 206.941406 420.5625 209.910156 L 420.5625 217.671875 C 420.5625 230.976562 429.335938 242.449219 442.050781 245.988281 L 442.050781 252.089844 L 434.378906 252.089844 C 433.515625 252.089844 432.816406 252.789062 432.816406 253.652344 L 432.816406 261.457031 C 432.816406 262.320312 433.515625 263.019531 434.378906 263.019531 L 465.605469 263.019531 C 466.46875 263.019531 467.167969 262.320312 467.167969 261.457031 L 467.167969 253.652344 C 467.167969 252.789062 466.46875 252.089844 465.605469 252.089844 L 457.933594 252.089844 L 457.933594 245.988281 C 470.648438 242.449219 479.425781 230.976562 479.425781 217.671875 L 479.425781 209.910156 C 479.425781 206.941406 477.011719 204.523438 474.039062 204.523438 Z M 476.304688 217.671875 C 476.304688 229.933594 467.964844 240.457031 456.019531 243.257812 C 455.3125 243.421875 454.816406 244.054688 454.816406 244.777344 L 454.816406 253.652344 C 454.816406 254.511719 455.515625 255.210938 456.375 255.210938 L 464.050781 255.210938 L 464.050781 259.898438 L 435.941406 259.898438 L 435.941406 255.210938 L 443.613281 255.210938 C 444.476562 255.210938 445.175781 254.511719 445.175781 253.652344 L 445.175781 244.777344 C 445.175781 244.054688 444.675781 243.421875 443.972656 243.257812 C 432.027344 240.457031 423.6875 229.933594 423.6875 217.671875 L 423.6875 209.910156 C 423.6875 208.660156 424.703125 207.644531 425.953125 207.644531 C 427.199219 207.644531 428.214844 208.660156 428.214844 209.910156 L 428.214844 218.628906 C 428.214844 224.445312 430.480469 229.914062 434.59375 234.027344 C 438.710938 238.144531 444.179688 240.410156 450 240.40625 C 455.816406 240.40625 461.285156 238.144531 465.402344 234.027344 C 469.515625 229.914062 471.78125 224.445312 471.78125 218.628906 L 471.78125 209.910156 C 471.78125 208.660156 472.796875 207.644531 474.046875 207.644531 C 475.292969 207.644531 476.308594 208.660156 476.308594 209.910156 L 476.308594 217.671875 Z M 476.304688 217.671875 " fill-opacity="1" fill-rule="nonzero"/><path fill="#a052cc" d="M 395.359375 254.066406 C 394.496094 254.066406 393.796875 254.765625 393.796875 255.625 L 393.796875 269.71875 C 393.796875 270.578125 394.496094 271.277344 395.359375 271.277344 C 396.21875 271.277344 396.917969 270.578125 396.917969 269.71875 L 396.917969 255.625 C 396.917969 254.761719 396.21875 254.066406 395.359375 254.066406 Z M 395.359375 254.066406 " fill-opacity="1" fill-rule="nonzero"/><path fill="#a052cc" d="M 388.695312 164.203125 C 387.832031 164.203125 387.132812 164.902344 387.132812 165.765625 L 387.132812 281.839844 C 387.132812 282.703125 387.832031 283.402344 388.695312 283.402344 C 389.558594 283.402344 390.257812 282.703125 390.257812 281.839844 L 390.257812 165.765625 C 390.257812 164.902344 389.558594 164.203125 388.695312 164.203125 Z M 388.695312 164.203125 " fill-opacity="1" fill-rule="nonzero"/><path fill="#a052cc" d="M 382.113281 173.566406 C 381.25 173.566406 380.550781 174.265625 380.550781 175.128906 L 380.550781 192.621094 C 380.550781 193.480469 381.25 194.179688 382.113281 194.179688 C 382.972656 194.179688 383.671875 193.480469 383.671875 192.621094 L 383.671875 175.128906 C 383.671875 174.265625 382.972656 173.566406 382.113281 173.566406 Z M 382.113281 173.566406 " fill-opacity="1" fill-rule="nonzero"/><path fill="#a052cc" d="M 382.113281 198.660156 C 381.25 198.660156 380.550781 199.359375 380.550781 200.21875 L 380.550781 256.996094 C 380.550781 257.859375 381.25 258.558594 382.113281 258.558594 C 382.972656 258.558594 383.671875 257.859375 383.671875 256.996094 L 383.671875 200.21875 C 383.671875 199.355469 382.972656 198.660156 382.113281 198.660156 Z M 382.113281 198.660156 " fill-opacity="1" fill-rule="nonzero"/><path fill="#a052cc" d="M 382.113281 262.605469 C 381.25 262.605469 380.550781 263.304688 380.550781 264.164062 L 380.550781 272.476562 C 380.550781 273.339844 381.25 274.039062 382.113281 274.039062 C 382.972656 274.039062 383.671875 273.339844 383.671875 272.476562 L 383.671875 264.164062 C 383.671875 263.304688 382.972656 262.605469 382.113281 262.605469 Z M 382.113281 262.605469 " fill-opacity="1" fill-rule="nonzero"/><path fill="#a052cc" d="M 375.710938 186.597656 C 374.851562 186.597656 374.152344 187.300781 374.152344 188.160156 L 374.152344 251.441406 C 374.152344 252.304688 374.851562 253.003906 375.710938 253.003906 C 376.574219 253.003906 377.273438 252.304688 377.273438 251.441406 L 377.273438 188.160156 C 377.273438 187.300781 376.574219 186.597656 375.710938 186.597656 Z M 375.710938 186.597656 " fill-opacity="1" fill-rule="nonzero"/><path fill="#a052cc" d="M 369.691406 173.566406 C 368.828125 173.566406 368.128906 174.265625 368.128906 175.128906 L 368.128906 272.476562 C 368.128906 273.339844 368.828125 274.039062 369.691406 274.039062 C 370.554688 274.039062 371.253906 273.339844 371.253906 272.476562 L 371.253906 175.128906 C 371.253906 174.265625 370.554688 173.566406 369.691406 173.566406 Z M 369.691406 173.566406 " fill-opacity="1" fill-rule="nonzero"/><path fill="#a052cc" d="M 363.929688 197.988281 C 363.066406 197.988281 362.367188 198.6875 362.367188 199.550781 L 362.367188 242.726562 C 362.367188 243.585938 363.066406 244.285156 363.929688 244.285156 C 364.792969 244.285156 365.492188 243.585938 365.492188 242.726562 L 365.492188 199.550781 C 365.492188 198.6875 364.792969 197.988281 363.929688 197.988281 Z M 363.929688 197.988281 " fill-opacity="1" fill-rule="nonzero"/><g clip-path="url(#806225b448)"><path fill="#a052cc" d="M 353.210938 178.425781 C 352.347656 178.425781 351.648438 179.125 351.648438 179.984375 L 351.648438 255.625 C 351.648438 256.488281 352.347656 257.1875 353.210938 257.1875 C 354.070312 257.1875 354.769531 256.488281 354.769531 255.625 L 354.769531 179.984375 C 354.769531 179.125 354.070312 178.425781 353.210938 178.425781 Z M 353.210938 178.425781 " fill-opacity="1" fill-rule="nonzero"/></g><path fill="#a052cc" d="M 358.175781 207.265625 C 357.316406 207.265625 356.617188 207.964844 356.617188 208.824219 L 356.617188 231.632812 C 356.617188 232.496094 357.316406 233.195312 358.175781 233.195312 C 359.039062 233.195312 359.738281 232.496094 359.738281 231.632812 L 359.738281 208.824219 C 359.738281 207.960938 359.039062 207.265625 358.175781 207.265625 Z M 358.175781 207.265625 " fill-opacity="1" fill-rule="nonzero"/><path fill="#a052cc" d="M 509.667969 181.105469 C 508.804688 181.105469 508.105469 181.804688 508.105469 182.664062 L 508.105469 261.460938 C 508.105469 262.320312 508.804688 263.019531 509.667969 263.019531 C 510.527344 263.019531 511.226562 262.320312 511.226562 261.460938 L 511.226562 182.664062 C 511.226562 181.804688 510.527344 181.105469 509.667969 181.105469 Z M 509.667969 181.105469 " fill-opacity="1" fill-rule="nonzero"/><path fill="#a052cc" d="M 514.722656 200.984375 C 513.863281 200.984375 513.164062 201.683594 513.164062 202.546875 L 513.164062 236.027344 C 513.164062 236.890625 513.863281 237.589844 514.722656 237.589844 C 515.585938 237.589844 516.285156 236.890625 516.285156 236.027344 L 516.285156 202.546875 C 516.285156 201.683594 515.585938 200.984375 514.722656 200.984375 Z M 514.722656 200.984375 " fill-opacity="1" fill-rule="nonzero"/><path fill="#a052cc" d="M 525.125 205.386719 C 524.265625 205.386719 523.566406 206.085938 523.566406 206.945312 L 523.566406 231.035156 C 523.566406 231.898438 524.265625 232.597656 525.125 232.597656 C 525.988281 232.597656 526.6875 231.898438 526.6875 231.035156 L 526.6875 206.945312 C 526.6875 206.082031 525.988281 205.386719 525.125 205.386719 Z M 525.125 205.386719 " fill-opacity="1" fill-rule="nonzero"/><path fill="#a052cc" d="M 530.550781 187.785156 C 529.703125 187.796875 528.980469 188.464844 528.96875 189.324219 C 527.972656 259.886719 528.796875 260.71875 529.398438 261.328125 C 529.691406 261.628906 530.113281 261.804688 530.527344 261.804688 C 531.390625 261.804688 532.089844 261.105469 532.089844 260.242188 C 532.089844 260.011719 532.039062 259.785156 531.945312 259.585938 C 531.378906 255.8125 531.714844 215.765625 532.089844 189.371094 C 532.101562 188.507812 531.414062 187.796875 530.550781 187.785156 Z M 530.550781 187.785156 " fill-opacity="1" fill-rule="nonzero"/><path fill="#a052cc" d="M 536.171875 204.261719 C 535.3125 204.261719 534.613281 204.960938 534.613281 205.824219 L 534.613281 231.035156 C 534.613281 231.898438 535.3125 232.597656 536.171875 232.597656 C 537.035156 232.597656 537.734375 231.898438 537.734375 231.035156 L 537.734375 205.824219 C 537.734375 204.960938 537.035156 204.261719 536.171875 204.261719 Z M 536.171875 204.261719 " fill-opacity="1" fill-rule="nonzero"/><path fill="#a052cc" d="M 541.386719 176.363281 C 540.523438 176.363281 539.824219 177.066406 539.824219 177.925781 L 539.824219 268.792969 C 539.824219 269.652344 540.523438 270.351562 541.386719 270.351562 C 542.246094 270.351562 542.945312 269.652344 542.945312 268.792969 L 542.945312 177.925781 C 542.945312 177.066406 542.25 176.363281 541.386719 176.363281 Z M 541.386719 176.363281 " fill-opacity="1" fill-rule="nonzero"/><g clip-path="url(#4b58e0a7c4)"><path fill="#a052cc" d="M 546.78125 167.796875 C 545.917969 167.796875 545.21875 168.496094 545.21875 169.355469 L 545.21875 203.636719 C 545.21875 204.5 545.917969 205.199219 546.78125 205.199219 C 547.644531 205.199219 548.34375 204.5 548.34375 203.636719 L 548.34375 169.355469 C 548.34375 168.496094 547.644531 167.796875 546.78125 167.796875 Z M 546.78125 167.796875 " fill-opacity="1" fill-rule="nonzero"/></g><g clip-path="url(#56b043f752)"><path fill="#a052cc" d="M 546.78125 208.191406 C 545.917969 208.191406 545.21875 208.890625 545.21875 209.753906 L 545.21875 247.75 C 545.21875 248.609375 545.917969 249.308594 546.78125 249.308594 C 547.644531 249.308594 548.34375 248.609375 548.34375 247.75 L 548.34375 209.753906 C 548.34375 208.890625 547.644531 208.191406 546.78125 208.191406 Z M 546.78125 208.191406 " fill-opacity="1" fill-rule="nonzero"/></g><g clip-path="url(#ea7b94de8c)"><path fill="#a052cc" d="M 546.78125 253.175781 C 545.917969 253.175781 545.21875 253.875 545.21875 254.738281 L 545.21875 284.609375 C 545.21875 285.472656 545.917969 286.171875 546.78125 286.171875 C 547.644531 286.171875 548.34375 285.472656 548.34375 284.609375 L 548.34375 254.738281 C 548.34375 253.875 547.644531 253.175781 546.78125 253.175781 Z M 546.78125 253.175781 " fill-opacity="1" fill-rule="nonzero"/></g><path fill="#a052cc" d="M 520 171.832031 C 519.140625 171.832031 518.441406 172.53125 518.441406 173.390625 L 518.441406 206.945312 C 518.441406 207.804688 519.140625 208.507812 520 208.507812 C 520.863281 208.507812 521.5625 207.804688 521.5625 206.945312 L 521.5625 173.390625 C 521.5625 172.53125 520.863281 171.832031 520 171.832031 Z M 520 171.832031 " fill-opacity="1" fill-rule="nonzero"/><path fill="#a052cc" d="M 520 212.226562 C 519.140625 212.226562 518.441406 212.925781 518.441406 213.785156 L 518.441406 232.449219 C 518.441406 233.3125 519.140625 234.011719 520 234.011719 C 520.863281 234.011719 521.5625 233.3125 521.5625 232.449219 L 521.5625 213.785156 C 521.5625 212.925781 520.863281 212.226562 520 212.226562 Z M 520 212.226562 " fill-opacity="1" fill-rule="nonzero"/><path fill="#a052cc" d="M 520 236.996094 C 519.140625 236.996094 518.441406 237.695312 518.441406 238.554688 L 518.441406 258.222656 C 518.441406 259.085938 519.140625 259.785156 520 259.785156 C 520.863281 259.785156 521.5625 259.085938 521.5625 258.222656 L 521.5625 238.554688 C 521.5625 237.691406 520.863281 236.996094 520 236.996094 Z M 520 236.996094 " fill-opacity="1" fill-rule="nonzero"/><path fill="#a052cc" d="M 520 263.46875 C 519.140625 263.46875 518.441406 264.167969 518.441406 265.03125 L 518.441406 273.90625 C 518.441406 274.765625 519.140625 275.464844 520 275.464844 C 520.863281 275.464844 521.5625 274.765625 521.5625 273.90625 L 521.5625 265.03125 C 521.5625 264.167969 520.863281 263.46875 520 263.46875 Z M 520 263.46875 " fill-opacity="1" fill-rule="nonzero"/><g clip-path="url(#a69c468784)"><path fill="#a052cc" d="M 335.789062 355.742188 C 334.085938 355.742188 332.507812 354.785156 331.730469 353.242188 C 330.886719 351.5625 331.164062 349.535156 332.425781 348.140625 C 345.824219 333.40625 355.375 320.632812 358.109375 306.992188 C 325.785156 286.09375 307.316406 255.652344 307.316406 223.058594 C 307.316406 193.53125 322.320312 165.847656 349.566406 145.113281 C 376.441406 124.664062 412.109375 113.398438 449.996094 113.398438 C 487.878906 113.398438 523.546875 124.664062 550.421875 145.113281 C 577.667969 165.847656 592.675781 193.53125 592.675781 223.058594 C 592.675781 252.589844 577.667969 280.269531 550.421875 301.003906 C 523.546875 321.457031 487.878906 332.71875 449.996094 332.71875 C 440.382812 332.71875 430.761719 331.976562 421.367188 330.507812 C 400.300781 344.023438 373.183594 352.046875 336.238281 355.722656 C 336.089844 355.734375 335.9375 355.742188 335.789062 355.742188 Z M 449.996094 122.488281 C 376.332031 122.488281 316.402344 167.605469 316.402344 223.058594 C 316.402344 253.289062 334.285156 281.65625 365.464844 300.890625 C 366.988281 301.828125 367.816406 303.570312 367.585938 305.339844 C 365.640625 320.351562 356.78125 333.640625 346.996094 345.324219 C 377.347656 341.265625 400.058594 333.75 417.84375 321.957031 C 418.804688 321.320312 419.96875 321.074219 421.101562 321.261719 C 430.5625 322.835938 440.285156 323.632812 449.996094 323.632812 C 523.65625 323.632812 583.585938 278.515625 583.585938 223.058594 C 583.585938 167.605469 523.65625 122.488281 449.996094 122.488281 Z M 449.996094 122.488281 " fill-opacity="1" fill-rule="nonzero"/></g><g fill="#a052cc" fill-opacity="1"><g transform="translate(454.764575, 366.490501)"><g><path d="M 11.703125 0.3125 C 9.734375 0.3125 7.992188 -0.0976562 6.484375 -0.921875 C 4.984375 -1.742188 3.804688 -2.976562 2.953125 -4.625 C 2.109375 -6.269531 1.6875 -8.296875 1.6875 -10.703125 C 1.6875 -13.117188 2.109375 -15.148438 2.953125 -16.796875 C 3.804688 -18.441406 4.984375 -19.671875 6.484375 -20.484375 C 7.992188 -21.304688 9.734375 -21.71875 11.703125 -21.71875 C 13.765625 -21.71875 15.515625 -21.316406 16.953125 -20.515625 C 18.390625 -19.710938 19.421875 -18.484375 20.046875 -16.828125 L 16.953125 -14.9375 L 16.578125 -14.953125 C 16.117188 -16.066406 15.492188 -16.863281 14.703125 -17.34375 C 13.921875 -17.832031 12.921875 -18.078125 11.703125 -18.078125 C 9.921875 -18.078125 8.53125 -17.488281 7.53125 -16.3125 C 6.539062 -15.132812 6.046875 -13.265625 6.046875 -10.703125 C 6.046875 -8.160156 6.539062 -6.300781 7.53125 -5.125 C 8.53125 -3.945312 9.921875 -3.359375 11.703125 -3.359375 C 14.484375 -3.359375 16.1875 -4.707031 16.8125 -7.40625 L 17.1875 -7.40625 L 20.296875 -5.78125 C 19.710938 -3.75 18.710938 -2.222656 17.296875 -1.203125 C 15.878906 -0.191406 14.015625 0.3125 11.703125 0.3125 Z M 11.703125 0.3125 "/></g></g></g><g fill="#a052cc" fill-opacity="1"><g transform="translate(475.770848, 366.490501)"><g><path d="M 2.328125 0 L 2.328125 -22.640625 L 6.390625 -22.640625 L 6.390625 -14.046875 L 6.6875 -13.984375 C 7.226562 -14.773438 7.890625 -15.382812 8.671875 -15.8125 C 9.453125 -16.25 10.394531 -16.46875 11.5 -16.46875 C 15.0625 -16.46875 16.84375 -14.445312 16.84375 -10.40625 L 16.84375 0 L 12.78125 0 L 12.78125 -9.890625 C 12.78125 -10.992188 12.5625 -11.789062 12.125 -12.28125 C 11.6875 -12.78125 11.003906 -13.03125 10.078125 -13.03125 C 8.941406 -13.03125 8.039062 -12.648438 7.375 -11.890625 C 6.71875 -11.140625 6.390625 -9.960938 6.390625 -8.359375 L 6.390625 0 Z M 2.328125 0 "/></g></g></g><g fill="#a052cc" fill-opacity="1"><g transform="translate(494.697002, 366.490501)"><g><path d="M 6.296875 0.3125 C 5.265625 0.3125 4.367188 0.125 3.609375 -0.25 C 2.847656 -0.632812 2.257812 -1.195312 1.84375 -1.9375 C 1.4375 -2.675781 1.234375 -3.5625 1.234375 -4.59375 C 1.234375 -5.550781 1.4375 -6.351562 1.84375 -7 C 2.257812 -7.65625 2.894531 -8.191406 3.75 -8.609375 C 4.613281 -9.023438 5.738281 -9.34375 7.125 -9.5625 C 8.082031 -9.71875 8.8125 -9.890625 9.3125 -10.078125 C 9.820312 -10.265625 10.164062 -10.472656 10.34375 -10.703125 C 10.519531 -10.941406 10.609375 -11.242188 10.609375 -11.609375 C 10.609375 -12.117188 10.425781 -12.507812 10.0625 -12.78125 C 9.695312 -13.0625 9.097656 -13.203125 8.265625 -13.203125 C 7.367188 -13.203125 6.515625 -13 5.703125 -12.59375 C 4.890625 -12.195312 4.1875 -11.671875 3.59375 -11.015625 L 3.296875 -11.015625 L 1.59375 -13.578125 C 2.414062 -14.484375 3.414062 -15.191406 4.59375 -15.703125 C 5.78125 -16.210938 7.070312 -16.46875 8.46875 -16.46875 C 10.601562 -16.46875 12.148438 -16.007812 13.109375 -15.09375 C 14.066406 -14.1875 14.546875 -12.898438 14.546875 -11.234375 L 14.546875 -4.21875 C 14.546875 -3.5 14.863281 -3.140625 15.5 -3.140625 C 15.738281 -3.140625 15.976562 -3.179688 16.21875 -3.265625 L 16.421875 -3.203125 L 16.71875 -0.375 C 16.488281 -0.226562 16.171875 -0.109375 15.765625 -0.015625 C 15.367188 0.078125 14.929688 0.125 14.453125 0.125 C 13.492188 0.125 12.738281 -0.0625 12.1875 -0.4375 C 11.644531 -0.8125 11.257812 -1.394531 11.03125 -2.1875 L 10.71875 -2.21875 C 9.925781 -0.53125 8.453125 0.3125 6.296875 0.3125 Z M 7.59375 -2.71875 C 8.53125 -2.71875 9.273438 -3.03125 9.828125 -3.65625 C 10.390625 -4.289062 10.671875 -5.171875 10.671875 -6.296875 L 10.671875 -7.9375 L 10.40625 -8 C 10.15625 -7.800781 9.832031 -7.632812 9.4375 -7.5 C 9.039062 -7.375 8.472656 -7.25 7.734375 -7.125 C 6.859375 -6.976562 6.226562 -6.722656 5.84375 -6.359375 C 5.457031 -6.003906 5.265625 -5.5 5.265625 -4.84375 C 5.265625 -4.15625 5.46875 -3.628906 5.875 -3.265625 C 6.28125 -2.898438 6.851562 -2.71875 7.59375 -2.71875 Z M 7.59375 -2.71875 "/></g></g></g><g fill="#a052cc" fill-opacity="1"><g transform="translate(511.733478, 366.490501)"><g><path d="M 11.140625 -3.859375 L 12.203125 -0.84375 C 11.765625 -0.488281 11.210938 -0.207031 10.546875 0 C 9.878906 0.207031 9.128906 0.3125 8.296875 0.3125 C 6.546875 0.3125 5.210938 -0.160156 4.296875 -1.109375 C 3.390625 -2.066406 2.9375 -3.457031 2.9375 -5.28125 L 2.9375 -12.953125 L 0.484375 -12.953125 L 0.484375 -16.171875 L 2.9375 -16.171875 L 2.9375 -19.328125 L 7 -19.984375 L 7 -16.171875 L 11.59375 -16.171875 L 11.59375 -12.953125 L 7 -12.953125 L 7 -5.5625 C 7 -4.757812 7.164062 -4.175781 7.5 -3.8125 C 7.832031 -3.445312 8.316406 -3.265625 8.953125 -3.265625 C 9.671875 -3.265625 10.300781 -3.460938 10.84375 -3.859375 Z M 11.140625 -3.859375 "/></g></g></g><g fill="#a052cc" fill-opacity="1"><g transform="translate(524.287444, 366.490501)"><g><path d="M 11.703125 0.3125 C 9.734375 0.3125 7.992188 -0.0976562 6.484375 -0.921875 C 4.984375 -1.742188 3.804688 -2.976562 2.953125 -4.625 C 2.109375 -6.269531 1.6875 -8.296875 1.6875 -10.703125 C 1.6875 -13.117188 2.109375 -15.148438 2.953125 -16.796875 C 3.804688 -18.441406 4.984375 -19.671875 6.484375 -20.484375 C 7.992188 -21.304688 9.734375 -21.71875 11.703125 -21.71875 C 13.765625 -21.71875 15.515625 -21.316406 16.953125 -20.515625 C 18.390625 -19.710938 19.421875 -18.484375 20.046875 -16.828125 L 16.953125 -14.9375 L 16.578125 -14.953125 C 16.117188 -16.066406 15.492188 -16.863281 14.703125 -17.34375 C 13.921875 -17.832031 12.921875 -18.078125 11.703125 -18.078125 C 9.921875 -18.078125 8.53125 -17.488281 7.53125 -16.3125 C 6.539062 -15.132812 6.046875 -13.265625 6.046875 -10.703125 C 6.046875 -8.160156 6.539062 -6.300781 7.53125 -5.125 C 8.53125 -3.945312 9.921875 -3.359375 11.703125 -3.359375 C 14.484375 -3.359375 16.1875 -4.707031 16.8125 -7.40625 L 17.1875 -7.40625 L 20.296875 -5.78125 C 19.710938 -3.75 18.710938 -2.222656 17.296875 -1.203125 C 15.878906 -0.191406 14.015625 0.3125 11.703125 0.3125 Z M 11.703125 0.3125 "/></g></g></g><g fill="#a052cc" fill-opacity="1"><g transform="translate(545.293717, 366.490501)"><g><path d="M 2.328125 0 L 2.328125 -16.15625 L 6.265625 -16.15625 L 6.265625 -13.75 L 6.578125 -13.703125 C 6.960938 -14.597656 7.472656 -15.253906 8.109375 -15.671875 C 8.742188 -16.085938 9.519531 -16.296875 10.4375 -16.296875 C 11.351562 -16.296875 12.050781 -16.140625 12.53125 -15.828125 L 11.84375 -12.328125 L 11.53125 -12.28125 C 11.269531 -12.382812 11.015625 -12.457031 10.765625 -12.5 C 10.523438 -12.550781 10.226562 -12.578125 9.875 -12.578125 C 8.738281 -12.578125 7.875 -12.179688 7.28125 -11.390625 C 6.6875 -10.597656 6.390625 -9.320312 6.390625 -7.5625 L 6.390625 0 Z M 2.328125 0 "/></g></g></g><g fill="#a052cc" fill-opacity="1"><g transform="translate(557.964872, 366.490501)"><g><path d="M 15.96875 -7.15625 L 5.578125 -7.15625 C 5.691406 -5.75 6.09375 -4.726562 6.78125 -4.09375 C 7.46875 -3.457031 8.398438 -3.140625 9.578125 -3.140625 C 10.503906 -3.140625 11.253906 -3.3125 11.828125 -3.65625 C 12.410156 -4 12.878906 -4.523438 13.234375 -5.234375 L 13.53125 -5.234375 L 16.234375 -3.5 C 15.703125 -2.363281 14.90625 -1.441406 13.84375 -0.734375 C 12.78125 -0.0351562 11.359375 0.3125 9.578125 0.3125 C 7.910156 0.3125 6.46875 -0.00390625 5.25 -0.640625 C 4.03125 -1.273438 3.09375 -2.21875 2.4375 -3.46875 C 1.78125 -4.726562 1.453125 -6.265625 1.453125 -8.078125 C 1.453125 -9.910156 1.796875 -11.457031 2.484375 -12.71875 C 3.179688 -13.976562 4.117188 -14.914062 5.296875 -15.53125 C 6.484375 -16.15625 7.8125 -16.46875 9.28125 -16.46875 C 11.570312 -16.46875 13.320312 -15.859375 14.53125 -14.640625 C 15.75 -13.429688 16.359375 -11.65625 16.359375 -9.3125 C 16.359375 -8.46875 16.332031 -7.8125 16.28125 -7.34375 Z M 12.484375 -9.78125 C 12.441406 -11.007812 12.15625 -11.90625 11.625 -12.46875 C 11.09375 -13.03125 10.3125 -13.3125 9.28125 -13.3125 C 7.238281 -13.3125 6.035156 -12.132812 5.671875 -9.78125 Z M 12.484375 -9.78125 "/></g></g></g><g fill="#a052cc" fill-opacity="1"><g transform="translate(575.528702, 366.490501)"><g><path d="M 7.5625 0.3125 C 6.457031 0.3125 5.445312 0.179688 4.53125 -0.078125 C 3.613281 -0.335938 2.828125 -0.691406 2.171875 -1.140625 C 1.523438 -1.597656 1.046875 -2.117188 0.734375 -2.703125 L 2.984375 -5.140625 L 3.296875 -5.140625 C 3.835938 -4.421875 4.472656 -3.878906 5.203125 -3.515625 C 5.929688 -3.148438 6.726562 -2.96875 7.59375 -2.96875 C 8.382812 -2.96875 8.976562 -3.109375 9.375 -3.390625 C 9.769531 -3.679688 9.96875 -4.085938 9.96875 -4.609375 C 9.96875 -5.023438 9.820312 -5.367188 9.53125 -5.640625 C 9.25 -5.921875 8.785156 -6.140625 8.140625 -6.296875 L 6 -6.8125 C 4.40625 -7.195312 3.238281 -7.78125 2.5 -8.5625 C 1.757812 -9.34375 1.390625 -10.34375 1.390625 -11.5625 C 1.390625 -12.5625 1.644531 -13.429688 2.15625 -14.171875 C 2.675781 -14.921875 3.398438 -15.488281 4.328125 -15.875 C 5.265625 -16.269531 6.351562 -16.46875 7.59375 -16.46875 C 9.039062 -16.46875 10.242188 -16.253906 11.203125 -15.828125 C 12.160156 -15.410156 12.910156 -14.851562 13.453125 -14.15625 L 11.28125 -11.8125 L 10.984375 -11.8125 C 10.535156 -12.3125 10.03125 -12.675781 9.46875 -12.90625 C 8.90625 -13.144531 8.28125 -13.265625 7.59375 -13.265625 C 5.988281 -13.265625 5.1875 -12.769531 5.1875 -11.78125 C 5.1875 -11.351562 5.332031 -11.007812 5.625 -10.75 C 5.925781 -10.488281 6.453125 -10.273438 7.203125 -10.109375 L 9.203125 -9.671875 C 10.835938 -9.316406 12.035156 -8.75 12.796875 -7.96875 C 13.554688 -7.195312 13.9375 -6.15625 13.9375 -4.84375 C 13.9375 -3.820312 13.679688 -2.921875 13.171875 -2.140625 C 12.660156 -1.359375 11.925781 -0.753906 10.96875 -0.328125 C 10.007812 0.0976562 8.875 0.3125 7.5625 0.3125 Z M 7.5625 0.3125 "/></g></g></g><g fill="#a052cc" fill-opacity="1"><g transform="translate(590.426463, 366.490501)"><g><path d="M 11.140625 -3.859375 L 12.203125 -0.84375 C 11.765625 -0.488281 11.210938 -0.207031 10.546875 0 C 9.878906 0.207031 9.128906 0.3125 8.296875 0.3125 C 6.546875 0.3125 5.210938 -0.160156 4.296875 -1.109375 C 3.390625 -2.066406 2.9375 -3.457031 2.9375 -5.28125 L 2.9375 -12.953125 L 0.484375 -12.953125 L 0.484375 -16.171875 L 2.9375 -16.171875 L 2.9375 -19.328125 L 7 -19.984375 L 7 -16.171875 L 11.59375 -16.171875 L 11.59375 -12.953125 L 7 -12.953125 L 7 -5.5625 C 7 -4.757812 7.164062 -4.175781 7.5 -3.8125 C 7.832031 -3.445312 8.316406 -3.265625 8.953125 -3.265625 C 9.671875 -3.265625 10.300781 -3.460938 10.84375 -3.859375 Z M 11.140625 -3.859375 "/></g></g></g><g fill="#a052cc" fill-opacity="1"><g transform="translate(602.980429, 366.490501)"><g/></g></g><g fill="#a052cc" fill-opacity="1"><g transform="translate(610.055771, 366.490501)"><g><path d="M 11.359375 0.3125 C 8.398438 0.3125 6.207031 -0.382812 4.78125 -1.78125 C 3.363281 -3.1875 2.65625 -5.269531 2.65625 -8.03125 L 2.65625 -21.421875 L 6.796875 -21.421875 L 6.796875 -8.0625 C 6.796875 -6.5 7.171875 -5.328125 7.921875 -4.546875 C 8.671875 -3.765625 9.816406 -3.375 11.359375 -3.375 C 14.390625 -3.375 15.90625 -4.9375 15.90625 -8.0625 L 15.90625 -21.421875 L 20.046875 -21.421875 L 20.046875 -8.03125 C 20.046875 -5.269531 19.332031 -3.1875 17.90625 -1.78125 C 16.488281 -0.382812 14.304688 0.3125 11.359375 0.3125 Z M 11.359375 0.3125 "/></g></g></g><g fill="#a052cc" fill-opacity="1"><g transform="translate(632.761296, 366.490501)"><g><path d="M 6.53125 -7.109375 L 2.875 -7.109375 L 2.578125 -21.421875 L 6.828125 -21.421875 Z M 4.703125 0.140625 C 4.191406 0.140625 3.742188 0.0390625 3.359375 -0.15625 C 2.972656 -0.363281 2.675781 -0.644531 2.46875 -1 C 2.257812 -1.363281 2.15625 -1.773438 2.15625 -2.234375 C 2.15625 -2.691406 2.257812 -3.101562 2.46875 -3.46875 C 2.675781 -3.832031 2.972656 -4.113281 3.359375 -4.3125 C 3.742188 -4.519531 4.191406 -4.625 4.703125 -4.625 C 5.460938 -4.625 6.070312 -4.398438 6.53125 -3.953125 C 7 -3.503906 7.234375 -2.929688 7.234375 -2.234375 C 7.234375 -1.546875 7 -0.976562 6.53125 -0.53125 C 6.070312 -0.0820312 5.460938 0.140625 4.703125 0.140625 Z M 4.703125 0.140625 "/></g></g></g></svg>