<svg xmlns="http://www.w3.org/2000/svg" xmlns:xlink="http://www.w3.org/1999/xlink" width="900" zoomAndPan="magnify" viewBox="0 0 675 225" height="300" preserveAspectRatio="xMidYMid meet" version="1.0"><defs><g/><clipPath id="ad615bec25"><path d="M 165 56.558594 L 243 56.558594 L 243 155.558594 L 165 155.558594 Z M 165 56.558594 " clip-rule="nonzero"/></clipPath><clipPath id="28ce52803a"><path d="M 136.207031 73 L 139 73 L 139 129 L 136.207031 129 Z M 136.207031 73 " clip-rule="nonzero"/></clipPath><clipPath id="5c5cbb58bb"><path d="M 269 66 L 271.207031 66 L 271.207031 93 L 269 93 Z M 269 66 " clip-rule="nonzero"/></clipPath><clipPath id="59b8ce82dd"><path d="M 269 94 L 271.207031 94 L 271.207031 123 L 269 123 Z M 269 94 " clip-rule="nonzero"/></clipPath><clipPath id="9bb19104e3"><path d="M 269 125 L 271.207031 125 L 271.207031 148 L 269 148 Z M 269 125 " clip-rule="nonzero"/></clipPath><clipPath id="214169c3fd"><path d="M 105.816406 30.226562 L 301.566406 30.226562 L 301.566406 196.726562 L 105.816406 196.726562 Z M 105.816406 30.226562 " clip-rule="nonzero"/></clipPath></defs><g clip-path="url(#ad615bec25)"><path fill="#a73cd5" d="M 241.019531 94.339844 L 241.019531 65.722656 C 241.019531 65.132812 240.539062 64.652344 239.949219 64.652344 C 239.355469 64.652344 238.875 65.132812 238.875 65.722656 L 238.875 88.335938 C 234.414062 78.476562 225.929688 70.816406 215.523438 67.464844 L 215.523438 63.203125 C 215.523438 62.609375 215.042969 62.128906 214.453125 62.128906 C 213.863281 62.128906 213.382812 62.609375 213.382812 63.203125 L 213.382812 66.835938 C 210.300781 66.042969 207.070312 65.617188 203.742188 65.617188 C 203.09375 65.617188 202.445312 65.632812 201.800781 65.667969 L 201.800781 57.628906 C 201.800781 57.039062 201.320312 56.558594 200.730469 56.558594 C 200.140625 56.558594 199.660156 57.039062 199.660156 57.628906 L 199.660156 65.835938 C 198.230469 65.988281 196.824219 66.222656 195.445312 66.527344 L 195.445312 62.21875 C 195.445312 61.628906 194.964844 61.148438 194.375 61.148438 C 193.78125 61.148438 193.304688 61.628906 193.304688 62.21875 L 193.304688 67.066406 C 188.03125 68.550781 183.210938 71.125 179.113281 74.535156 L 179.113281 70.972656 C 179.113281 70.378906 178.632812 69.898438 178.042969 69.898438 C 177.449219 69.898438 176.972656 70.378906 176.972656 70.972656 L 176.972656 76.46875 C 172.675781 80.621094 169.339844 85.761719 167.332031 91.519531 L 167.332031 81.640625 C 167.332031 81.050781 166.855469 80.570312 166.261719 80.570312 C 165.671875 80.570312 165.191406 81.050781 165.191406 81.640625 L 165.191406 122.941406 C 165.191406 123.53125 165.671875 124.011719 166.261719 124.011719 C 166.855469 124.011719 167.332031 123.53125 167.332031 122.941406 L 167.332031 116.816406 C 169.457031 122.914062 173.066406 128.324219 177.738281 132.597656 L 177.738281 136.90625 C 177.738281 137.496094 178.21875 137.976562 178.808594 137.976562 C 179.398438 137.976562 179.878906 137.496094 179.878906 136.90625 L 179.878906 134.410156 C 184.222656 137.84375 189.316406 140.363281 194.875 141.675781 L 194.875 148.5 C 194.875 149.089844 195.355469 149.570312 195.945312 149.570312 C 196.539062 149.570312 197.015625 149.089844 197.015625 148.5 L 197.015625 142.117188 C 198.859375 142.441406 200.746094 142.636719 202.671875 142.6875 L 202.671875 154.179688 C 202.671875 154.769531 203.152344 155.25 203.742188 155.25 C 204.332031 155.25 204.8125 154.769531 204.8125 154.179688 L 204.8125 142.691406 C 207.761719 142.609375 210.632812 142.207031 213.382812 141.496094 L 213.382812 145.316406 C 213.382812 145.90625 213.859375 146.386719 214.453125 146.386719 C 215.042969 146.386719 215.523438 145.90625 215.523438 145.316406 L 215.523438 140.867188 C 217.324219 140.289062 219.066406 139.582031 220.742188 138.753906 L 220.742188 141.9375 C 220.742188 142.53125 221.222656 143.007812 221.8125 143.007812 C 222.402344 143.007812 222.882812 142.53125 222.882812 141.9375 L 222.882812 137.605469 C 229.894531 133.578125 235.523438 127.410156 238.875 120 L 238.875 144.664062 C 238.875 145.257812 239.355469 145.738281 239.945312 145.738281 C 240.539062 145.738281 241.015625 145.257812 241.015625 144.664062 L 241.015625 113.992188 C 241.847656 110.855469 242.292969 107.5625 242.292969 104.167969 C 242.292969 100.769531 241.847656 97.480469 241.019531 94.339844 Z M 203.742188 140.574219 C 183.664062 140.574219 167.332031 124.242188 167.332031 104.167969 C 167.332031 84.089844 183.664062 67.757812 203.742188 67.757812 C 223.816406 67.757812 240.148438 84.089844 240.148438 104.167969 C 240.148438 124.242188 223.816406 140.574219 203.742188 140.574219 Z M 203.742188 140.574219 " fill-opacity="1" fill-rule="nonzero"/></g><path fill="#a73cd5" d="M 203.742188 69.898438 C 184.847656 69.898438 169.476562 85.273438 169.476562 104.167969 C 169.476562 123.0625 184.847656 138.433594 203.742188 138.433594 C 222.636719 138.433594 238.007812 123.0625 238.007812 104.167969 C 238.007812 85.273438 222.636719 69.898438 203.742188 69.898438 Z M 203.742188 136.292969 C 186.027344 136.292969 171.617188 121.878906 171.617188 104.167969 C 171.617188 86.453125 186.027344 72.042969 203.742188 72.042969 C 221.457031 72.042969 235.867188 86.453125 235.867188 104.167969 C 235.867188 121.878906 221.457031 136.292969 203.742188 136.292969 Z M 203.742188 136.292969 " fill-opacity="1" fill-rule="nonzero"/><path fill="#a73cd5" d="M 203.742188 112.488281 C 209.292969 112.488281 213.808594 107.972656 213.808594 102.421875 L 213.808594 84.046875 C 213.808594 78.496094 209.292969 73.980469 203.742188 73.980469 C 198.191406 73.980469 193.675781 78.496094 193.675781 84.046875 L 193.675781 102.421875 C 193.675781 107.972656 198.191406 112.488281 203.742188 112.488281 Z M 195.816406 91.597656 L 211.667969 91.597656 L 211.667969 94.75 L 195.816406 94.75 Z M 203.742188 76.121094 C 208.113281 76.121094 211.667969 79.675781 211.667969 84.046875 L 211.667969 89.453125 L 195.816406 89.453125 L 195.816406 84.046875 C 195.816406 79.675781 199.371094 76.121094 203.742188 76.121094 Z M 195.816406 96.890625 L 211.667969 96.890625 L 211.667969 102.421875 C 211.667969 106.792969 208.113281 110.347656 203.742188 110.347656 C 199.371094 110.347656 195.816406 106.789062 195.816406 102.421875 Z M 195.816406 96.890625 " fill-opacity="1" fill-rule="nonzero"/><path fill="#a73cd5" d="M 220.234375 91.882812 C 218.199219 91.882812 216.542969 93.539062 216.542969 95.578125 L 216.542969 101.558594 C 216.542969 104.976562 215.210938 108.191406 212.792969 110.609375 C 210.375 113.023438 207.160156 114.355469 203.742188 114.355469 C 200.320312 114.355469 197.105469 113.023438 194.6875 110.609375 C 192.273438 108.191406 190.941406 104.976562 190.941406 101.558594 L 190.941406 95.578125 C 190.941406 93.539062 189.285156 91.882812 187.246094 91.882812 C 185.207031 91.882812 183.550781 93.539062 183.550781 95.578125 L 183.550781 100.902344 C 183.550781 110.027344 189.570312 117.898438 198.292969 120.328125 L 198.292969 124.511719 L 193.03125 124.511719 C 192.4375 124.511719 191.957031 124.992188 191.957031 125.582031 L 191.957031 130.9375 C 191.957031 131.527344 192.4375 132.007812 193.03125 132.007812 L 214.453125 132.007812 C 215.042969 132.007812 215.523438 131.527344 215.523438 130.9375 L 215.523438 125.582031 C 215.523438 124.992188 215.042969 124.511719 214.453125 124.511719 L 209.1875 124.511719 L 209.1875 120.328125 C 217.910156 117.898438 223.929688 110.027344 223.929688 100.902344 L 223.929688 95.578125 C 223.929688 93.539062 222.273438 91.882812 220.234375 91.882812 Z M 221.789062 100.902344 C 221.789062 109.3125 216.066406 116.53125 207.875 118.453125 C 207.390625 118.566406 207.046875 118.996094 207.046875 119.496094 L 207.046875 125.582031 C 207.046875 126.171875 207.527344 126.652344 208.121094 126.652344 L 213.382812 126.652344 L 213.382812 129.867188 L 194.101562 129.867188 L 194.101562 126.652344 L 199.367188 126.652344 C 199.957031 126.652344 200.4375 126.171875 200.4375 125.582031 L 200.4375 119.496094 C 200.4375 119 200.09375 118.566406 199.609375 118.453125 C 191.417969 116.53125 185.695312 109.3125 185.695312 100.902344 L 185.695312 95.578125 C 185.695312 94.71875 186.390625 94.023438 187.25 94.023438 C 188.105469 94.023438 188.800781 94.71875 188.800781 95.578125 L 188.800781 101.558594 C 188.800781 105.546875 190.355469 109.300781 193.179688 112.121094 C 196 114.945312 199.753906 116.5 203.742188 116.496094 C 203.742188 116.496094 203.742188 116.496094 203.746094 116.496094 C 207.734375 116.496094 211.488281 114.945312 214.308594 112.121094 C 217.132812 109.300781 218.6875 105.546875 218.6875 101.558594 L 218.6875 95.578125 C 218.6875 94.71875 219.382812 94.023438 220.238281 94.023438 C 221.097656 94.023438 221.792969 94.71875 221.792969 95.578125 L 221.792969 100.902344 Z M 221.789062 100.902344 " fill-opacity="1" fill-rule="nonzero"/><path fill="#a73cd5" d="M 166.261719 125.867188 C 165.671875 125.867188 165.191406 126.347656 165.191406 126.9375 L 165.191406 136.601562 C 165.191406 137.195312 165.671875 137.675781 166.261719 137.675781 C 166.855469 137.675781 167.332031 137.195312 167.332031 136.601562 L 167.332031 126.9375 C 167.332031 126.34375 166.855469 125.867188 166.261719 125.867188 Z M 166.261719 125.867188 " fill-opacity="1" fill-rule="nonzero"/><path fill="#a73cd5" d="M 161.691406 64.226562 C 161.101562 64.226562 160.621094 64.703125 160.621094 65.296875 L 160.621094 144.917969 C 160.621094 145.507812 161.101562 145.988281 161.691406 145.988281 C 162.285156 145.988281 162.761719 145.507812 162.761719 144.917969 L 162.761719 65.296875 C 162.761719 64.703125 162.285156 64.226562 161.691406 64.226562 Z M 161.691406 64.226562 " fill-opacity="1" fill-rule="nonzero"/><path fill="#a73cd5" d="M 157.175781 70.648438 C 156.585938 70.648438 156.105469 71.125 156.105469 71.71875 L 156.105469 83.71875 C 156.105469 84.308594 156.585938 84.789062 157.175781 84.789062 C 157.769531 84.789062 158.246094 84.308594 158.246094 83.71875 L 158.246094 71.71875 C 158.246094 71.125 157.769531 70.648438 157.175781 70.648438 Z M 157.175781 70.648438 " fill-opacity="1" fill-rule="nonzero"/><path fill="#a73cd5" d="M 157.175781 87.859375 C 156.585938 87.859375 156.105469 88.339844 156.105469 88.929688 L 156.105469 127.878906 C 156.105469 128.46875 156.585938 128.949219 157.175781 128.949219 C 157.769531 128.949219 158.246094 128.46875 158.246094 127.878906 L 158.246094 88.929688 C 158.246094 88.339844 157.769531 87.859375 157.175781 87.859375 Z M 157.175781 87.859375 " fill-opacity="1" fill-rule="nonzero"/><path fill="#a73cd5" d="M 157.175781 131.722656 C 156.585938 131.722656 156.105469 132.203125 156.105469 132.792969 L 156.105469 138.496094 C 156.105469 139.085938 156.585938 139.566406 157.175781 139.566406 C 157.769531 139.566406 158.246094 139.085938 158.246094 138.496094 L 158.246094 132.792969 C 158.246094 132.203125 157.769531 131.722656 157.175781 131.722656 Z M 157.175781 131.722656 " fill-opacity="1" fill-rule="nonzero"/><path fill="#a73cd5" d="M 152.785156 79.585938 C 152.195312 79.585938 151.714844 80.066406 151.714844 80.65625 L 151.714844 124.066406 C 151.714844 124.65625 152.195312 125.136719 152.785156 125.136719 C 153.378906 125.136719 153.855469 124.65625 153.855469 124.066406 L 153.855469 80.65625 C 153.855469 80.066406 153.378906 79.585938 152.785156 79.585938 Z M 152.785156 79.585938 " fill-opacity="1" fill-rule="nonzero"/><path fill="#a73cd5" d="M 148.65625 70.648438 C 148.066406 70.648438 147.585938 71.125 147.585938 71.71875 L 147.585938 138.496094 C 147.585938 139.085938 148.066406 139.566406 148.65625 139.566406 C 149.246094 139.566406 149.726562 139.085938 149.726562 138.496094 L 149.726562 71.71875 C 149.726562 71.125 149.246094 70.648438 148.65625 70.648438 Z M 148.65625 70.648438 " fill-opacity="1" fill-rule="nonzero"/><path fill="#a73cd5" d="M 144.703125 87.398438 C 144.113281 87.398438 143.632812 87.878906 143.632812 88.46875 L 143.632812 118.085938 C 143.632812 118.679688 144.113281 119.160156 144.703125 119.160156 C 145.296875 119.160156 145.773438 118.679688 145.773438 118.085938 L 145.773438 88.46875 C 145.773438 87.878906 145.296875 87.398438 144.703125 87.398438 Z M 144.703125 87.398438 " fill-opacity="1" fill-rule="nonzero"/><g clip-path="url(#28ce52803a)"><path fill="#a73cd5" d="M 137.351562 73.980469 C 136.757812 73.980469 136.28125 74.457031 136.28125 75.050781 L 136.28125 126.9375 C 136.28125 127.527344 136.757812 128.007812 137.351562 128.007812 C 137.941406 128.007812 138.421875 127.527344 138.421875 126.9375 L 138.421875 75.050781 C 138.421875 74.457031 137.941406 73.980469 137.351562 73.980469 Z M 137.351562 73.980469 " fill-opacity="1" fill-rule="nonzero"/></g><path fill="#a73cd5" d="M 140.757812 93.761719 C 140.167969 93.761719 139.6875 94.242188 139.6875 94.832031 L 139.6875 110.480469 C 139.6875 111.070312 140.167969 111.550781 140.757812 111.550781 C 141.347656 111.550781 141.828125 111.070312 141.828125 110.480469 L 141.828125 94.832031 C 141.828125 94.242188 141.347656 93.761719 140.757812 93.761719 Z M 140.757812 93.761719 " fill-opacity="1" fill-rule="nonzero"/><path fill="#a73cd5" d="M 244.675781 75.816406 C 244.082031 75.816406 243.601562 76.296875 243.601562 76.886719 L 243.601562 130.9375 C 243.601562 131.53125 244.082031 132.007812 244.675781 132.007812 C 245.265625 132.007812 245.746094 131.53125 245.746094 130.9375 L 245.746094 76.886719 C 245.746094 76.296875 245.265625 75.816406 244.675781 75.816406 Z M 244.675781 75.816406 " fill-opacity="1" fill-rule="nonzero"/><path fill="#a73cd5" d="M 248.144531 89.453125 C 247.550781 89.453125 247.074219 89.933594 247.074219 90.527344 L 247.074219 113.492188 C 247.074219 114.085938 247.550781 114.566406 248.144531 114.566406 C 248.734375 114.566406 249.214844 114.085938 249.214844 113.492188 L 249.214844 90.527344 C 249.214844 89.933594 248.734375 89.453125 248.144531 89.453125 Z M 248.144531 89.453125 " fill-opacity="1" fill-rule="nonzero"/><path fill="#a73cd5" d="M 255.277344 92.472656 C 254.6875 92.472656 254.207031 92.953125 254.207031 93.542969 L 254.207031 110.070312 C 254.207031 110.660156 254.6875 111.140625 255.277344 111.140625 C 255.871094 111.140625 256.347656 110.660156 256.347656 110.070312 L 256.347656 93.542969 C 256.347656 92.953125 255.871094 92.472656 255.277344 92.472656 Z M 255.277344 92.472656 " fill-opacity="1" fill-rule="nonzero"/><path fill="#a73cd5" d="M 259 80.402344 C 258.417969 80.410156 257.921875 80.867188 257.914062 81.457031 C 257.230469 129.859375 257.796875 130.429688 258.207031 130.847656 C 258.410156 131.054688 258.699219 131.175781 258.984375 131.175781 C 259.574219 131.175781 260.054688 130.695312 260.054688 130.105469 C 260.054688 129.945312 260.019531 129.789062 259.957031 129.652344 C 259.570312 127.0625 259.800781 99.59375 260.054688 81.488281 C 260.0625 80.894531 259.589844 80.410156 259 80.402344 Z M 259 80.402344 " fill-opacity="1" fill-rule="nonzero"/><path fill="#a73cd5" d="M 262.855469 91.703125 C 262.265625 91.703125 261.785156 92.183594 261.785156 92.773438 L 261.785156 110.066406 C 261.785156 110.660156 262.265625 111.140625 262.855469 111.140625 C 263.449219 111.140625 263.929688 110.660156 263.929688 110.066406 L 263.929688 92.773438 C 263.929688 92.183594 263.449219 91.703125 262.855469 91.703125 Z M 262.855469 91.703125 " fill-opacity="1" fill-rule="nonzero"/><path fill="#a73cd5" d="M 266.433594 72.566406 C 265.839844 72.566406 265.363281 73.046875 265.363281 73.636719 L 265.363281 135.96875 C 265.363281 136.558594 265.839844 137.039062 266.433594 137.039062 C 267.023438 137.039062 267.503906 136.558594 267.503906 135.96875 L 267.503906 73.636719 C 267.503906 73.046875 267.023438 72.566406 266.433594 72.566406 Z M 266.433594 72.566406 " fill-opacity="1" fill-rule="nonzero"/><g clip-path="url(#5c5cbb58bb)"><path fill="#a73cd5" d="M 270.132812 66.6875 C 269.542969 66.6875 269.0625 67.167969 269.0625 67.757812 L 269.0625 91.273438 C 269.0625 91.867188 269.542969 92.347656 270.132812 92.347656 C 270.722656 92.347656 271.203125 91.867188 271.203125 91.273438 L 271.203125 67.757812 C 271.203125 67.167969 270.722656 66.6875 270.132812 66.6875 Z M 270.132812 66.6875 " fill-opacity="1" fill-rule="nonzero"/></g><g clip-path="url(#59b8ce82dd)"><path fill="#a73cd5" d="M 270.132812 94.398438 C 269.542969 94.398438 269.0625 94.878906 269.0625 95.46875 L 269.0625 121.535156 C 269.0625 122.125 269.542969 122.605469 270.132812 122.605469 C 270.722656 122.605469 271.203125 122.125 271.203125 121.535156 L 271.203125 95.46875 C 271.203125 94.878906 270.722656 94.398438 270.132812 94.398438 Z M 270.132812 94.398438 " fill-opacity="1" fill-rule="nonzero"/></g><g clip-path="url(#9bb19104e3)"><path fill="#a73cd5" d="M 270.132812 125.253906 C 269.542969 125.253906 269.0625 125.734375 269.0625 126.328125 L 269.0625 146.820312 C 269.0625 147.410156 269.542969 147.890625 270.132812 147.890625 C 270.722656 147.890625 271.203125 147.410156 271.203125 146.820312 L 271.203125 126.328125 C 271.203125 125.734375 270.722656 125.253906 270.132812 125.253906 Z M 270.132812 125.253906 " fill-opacity="1" fill-rule="nonzero"/></g><path fill="#a73cd5" d="M 251.761719 69.457031 C 251.171875 69.457031 250.691406 69.9375 250.691406 70.527344 L 250.691406 93.542969 C 250.691406 94.132812 251.171875 94.613281 251.761719 94.613281 C 252.355469 94.613281 252.835938 94.132812 252.835938 93.542969 L 252.835938 70.527344 C 252.835938 69.9375 252.355469 69.457031 251.761719 69.457031 Z M 251.761719 69.457031 " fill-opacity="1" fill-rule="nonzero"/><path fill="#a73cd5" d="M 251.761719 97.164062 C 251.171875 97.164062 250.691406 97.644531 250.691406 98.238281 L 250.691406 111.039062 C 250.691406 111.628906 251.171875 112.109375 251.761719 112.109375 C 252.355469 112.109375 252.835938 111.628906 252.835938 111.039062 L 252.835938 98.238281 C 252.835938 97.644531 252.355469 97.164062 251.761719 97.164062 Z M 251.761719 97.164062 " fill-opacity="1" fill-rule="nonzero"/><path fill="#a73cd5" d="M 251.761719 114.15625 C 251.171875 114.15625 250.691406 114.636719 250.691406 115.226562 L 250.691406 128.71875 C 250.691406 129.308594 251.171875 129.789062 251.761719 129.789062 C 252.355469 129.789062 252.835938 129.308594 252.835938 128.71875 L 252.835938 115.226562 C 252.835938 114.636719 252.355469 114.15625 251.761719 114.15625 Z M 251.761719 114.15625 " fill-opacity="1" fill-rule="nonzero"/><path fill="#a73cd5" d="M 251.761719 132.316406 C 251.171875 132.316406 250.691406 132.796875 250.691406 133.386719 L 250.691406 139.476562 C 250.691406 140.066406 251.171875 140.546875 251.761719 140.546875 C 252.355469 140.546875 252.835938 140.066406 252.835938 139.476562 L 252.835938 133.386719 C 252.835938 132.796875 252.355469 132.316406 251.761719 132.316406 Z M 251.761719 132.316406 " fill-opacity="1" fill-rule="nonzero"/><g clip-path="url(#214169c3fd)"><path fill="#a73cd5" d="M 125.40625 196.457031 C 124.238281 196.457031 123.15625 195.800781 122.625 194.742188 C 122.046875 193.589844 122.234375 192.199219 123.101562 191.246094 C 132.292969 181.136719 138.84375 172.375 140.71875 163.019531 C 118.546875 148.683594 105.878906 127.804688 105.878906 105.445312 C 105.878906 85.191406 116.167969 66.203125 134.859375 51.984375 C 153.292969 37.953125 177.757812 30.226562 203.746094 30.226562 C 229.730469 30.226562 254.195312 37.953125 272.632812 51.984375 C 291.320312 66.203125 301.613281 85.191406 301.613281 105.445312 C 301.613281 125.703125 291.320312 144.691406 272.632812 158.910156 C 254.195312 172.941406 229.730469 180.667969 203.746094 180.667969 C 197.152344 180.667969 190.554688 180.15625 184.109375 179.148438 C 169.660156 188.417969 151.058594 193.921875 125.71875 196.441406 C 125.613281 196.453125 125.511719 196.457031 125.40625 196.457031 Z M 203.746094 36.460938 C 153.21875 36.460938 112.109375 67.410156 112.109375 105.445312 C 112.109375 126.183594 124.378906 145.640625 145.765625 158.832031 C 146.808594 159.476562 147.378906 160.671875 147.21875 161.886719 C 145.886719 172.183594 139.808594 181.296875 133.09375 189.3125 C 153.914062 186.527344 169.492188 181.371094 181.691406 173.28125 C 182.351562 172.847656 183.148438 172.675781 183.925781 172.804688 C 190.417969 173.886719 197.085938 174.433594 203.746094 174.433594 C 254.273438 174.433594 295.378906 143.484375 295.378906 105.445312 C 295.378906 67.410156 254.273438 36.460938 203.746094 36.460938 Z M 203.746094 36.460938 " fill-opacity="1" fill-rule="nonzero"/></g><g fill="#a052cc" fill-opacity="1"><g transform="translate(315.478727, 124.327329)"><g><path d="M 12.890625 0.34375 C 10.710938 0.34375 8.796875 -0.109375 7.140625 -1.015625 C 5.484375 -1.921875 4.1875 -3.28125 3.25 -5.09375 C 2.320312 -6.90625 1.859375 -9.140625 1.859375 -11.796875 C 1.859375 -14.453125 2.320312 -16.679688 3.25 -18.484375 C 4.1875 -20.296875 5.484375 -21.65625 7.140625 -22.5625 C 8.796875 -23.46875 10.710938 -23.921875 12.890625 -23.921875 C 15.160156 -23.921875 17.085938 -23.472656 18.671875 -22.578125 C 20.253906 -21.691406 21.382812 -20.34375 22.0625 -18.53125 L 18.65625 -16.453125 L 18.25 -16.46875 C 17.75 -17.695312 17.066406 -18.578125 16.203125 -19.109375 C 15.335938 -19.640625 14.234375 -19.90625 12.890625 -19.90625 C 10.929688 -19.90625 9.398438 -19.253906 8.296875 -17.953125 C 7.203125 -16.660156 6.65625 -14.609375 6.65625 -11.796875 C 6.65625 -8.984375 7.203125 -6.925781 8.296875 -5.625 C 9.398438 -4.332031 10.929688 -3.6875 12.890625 -3.6875 C 15.953125 -3.6875 17.828125 -5.175781 18.515625 -8.15625 L 18.921875 -8.15625 L 22.359375 -6.375 C 21.710938 -4.132812 20.609375 -2.453125 19.046875 -1.328125 C 17.484375 -0.210938 15.429688 0.34375 12.890625 0.34375 Z M 12.890625 0.34375 "/></g></g></g><g fill="#a052cc" fill-opacity="1"><g transform="translate(338.610064, 124.327329)"><g><path d="M 2.5625 0 L 2.5625 -24.9375 L 7.03125 -24.9375 L 7.03125 -15.46875 L 7.375 -15.40625 C 7.96875 -16.269531 8.691406 -16.9375 9.546875 -17.40625 C 10.410156 -17.882812 11.445312 -18.125 12.65625 -18.125 C 16.582031 -18.125 18.546875 -15.898438 18.546875 -11.453125 L 18.546875 0 L 14.078125 0 L 14.078125 -10.890625 C 14.078125 -12.097656 13.832031 -12.976562 13.34375 -13.53125 C 12.863281 -14.082031 12.113281 -14.359375 11.09375 -14.359375 C 9.84375 -14.359375 8.851562 -13.941406 8.125 -13.109375 C 7.394531 -12.273438 7.03125 -10.972656 7.03125 -9.203125 L 7.03125 0 Z M 2.5625 0 "/></g></g></g><g fill="#a052cc" fill-opacity="1"><g transform="translate(359.450851, 124.327329)"><g><path d="M 6.9375 0.34375 C 5.789062 0.34375 4.796875 0.132812 3.953125 -0.28125 C 3.117188 -0.707031 2.476562 -1.328125 2.03125 -2.140625 C 1.582031 -2.953125 1.359375 -3.925781 1.359375 -5.0625 C 1.359375 -6.113281 1.582031 -7 2.03125 -7.71875 C 2.476562 -8.4375 3.175781 -9.019531 4.125 -9.46875 C 5.070312 -9.925781 6.3125 -10.28125 7.84375 -10.53125 C 8.90625 -10.707031 9.710938 -10.894531 10.265625 -11.09375 C 10.816406 -11.300781 11.1875 -11.53125 11.375 -11.78125 C 11.570312 -12.039062 11.671875 -12.375 11.671875 -12.78125 C 11.671875 -13.34375 11.472656 -13.773438 11.078125 -14.078125 C 10.679688 -14.378906 10.019531 -14.53125 9.09375 -14.53125 C 8.101562 -14.53125 7.160156 -14.304688 6.265625 -13.859375 C 5.378906 -13.421875 4.609375 -12.84375 3.953125 -12.125 L 3.625 -12.125 L 1.765625 -14.953125 C 2.660156 -15.953125 3.757812 -16.726562 5.0625 -17.28125 C 6.363281 -17.84375 7.785156 -18.125 9.328125 -18.125 C 11.679688 -18.125 13.382812 -17.625 14.4375 -16.625 C 15.488281 -15.625 16.015625 -14.207031 16.015625 -12.375 L 16.015625 -4.640625 C 16.015625 -3.847656 16.363281 -3.453125 17.0625 -3.453125 C 17.332031 -3.453125 17.597656 -3.5 17.859375 -3.59375 L 18.078125 -3.53125 L 18.40625 -0.421875 C 18.15625 -0.253906 17.804688 -0.117188 17.359375 -0.015625 C 16.921875 0.078125 16.441406 0.125 15.921875 0.125 C 14.859375 0.125 14.023438 -0.078125 13.421875 -0.484375 C 12.828125 -0.890625 12.398438 -1.53125 12.140625 -2.40625 L 11.8125 -2.4375 C 10.9375 -0.582031 9.3125 0.34375 6.9375 0.34375 Z M 8.359375 -3 C 9.390625 -3 10.210938 -3.34375 10.828125 -4.03125 C 11.441406 -4.726562 11.75 -5.695312 11.75 -6.9375 L 11.75 -8.734375 L 11.453125 -8.8125 C 11.179688 -8.59375 10.828125 -8.410156 10.390625 -8.265625 C 9.953125 -8.117188 9.328125 -7.976562 8.515625 -7.84375 C 7.546875 -7.675781 6.847656 -7.394531 6.421875 -7 C 6.003906 -6.613281 5.796875 -6.0625 5.796875 -5.34375 C 5.796875 -4.570312 6.019531 -3.988281 6.46875 -3.59375 C 6.914062 -3.195312 7.546875 -3 8.359375 -3 Z M 8.359375 -3 "/></g></g></g><g fill="#a052cc" fill-opacity="1"><g transform="translate(378.210793, 124.327329)"><g><path d="M 12.28125 -4.234375 L 13.4375 -0.9375 C 12.945312 -0.539062 12.335938 -0.226562 11.609375 0 C 10.878906 0.226562 10.050781 0.34375 9.125 0.34375 C 7.195312 0.34375 5.734375 -0.179688 4.734375 -1.234375 C 3.734375 -2.285156 3.234375 -3.8125 3.234375 -5.8125 L 3.234375 -14.25 L 0.53125 -14.25 L 0.53125 -17.8125 L 3.234375 -17.8125 L 3.234375 -21.28125 L 7.703125 -22 L 7.703125 -17.8125 L 12.75 -17.8125 L 12.75 -14.25 L 7.703125 -14.25 L 7.703125 -6.125 C 7.703125 -5.25 7.882812 -4.609375 8.25 -4.203125 C 8.625 -3.796875 9.160156 -3.59375 9.859375 -3.59375 C 10.648438 -3.59375 11.34375 -3.804688 11.9375 -4.234375 Z M 12.28125 -4.234375 "/></g></g></g><g fill="#a052cc" fill-opacity="1"><g transform="translate(392.03476, 124.327329)"><g><path d="M 12.890625 0.34375 C 10.710938 0.34375 8.796875 -0.109375 7.140625 -1.015625 C 5.484375 -1.921875 4.1875 -3.28125 3.25 -5.09375 C 2.320312 -6.90625 1.859375 -9.140625 1.859375 -11.796875 C 1.859375 -14.453125 2.320312 -16.679688 3.25 -18.484375 C 4.1875 -20.296875 5.484375 -21.65625 7.140625 -22.5625 C 8.796875 -23.46875 10.710938 -23.921875 12.890625 -23.921875 C 15.160156 -23.921875 17.085938 -23.472656 18.671875 -22.578125 C 20.253906 -21.691406 21.382812 -20.34375 22.0625 -18.53125 L 18.65625 -16.453125 L 18.25 -16.46875 C 17.75 -17.695312 17.066406 -18.578125 16.203125 -19.109375 C 15.335938 -19.640625 14.234375 -19.90625 12.890625 -19.90625 C 10.929688 -19.90625 9.398438 -19.253906 8.296875 -17.953125 C 7.203125 -16.660156 6.65625 -14.609375 6.65625 -11.796875 C 6.65625 -8.984375 7.203125 -6.925781 8.296875 -5.625 C 9.398438 -4.332031 10.929688 -3.6875 12.890625 -3.6875 C 15.953125 -3.6875 17.828125 -5.175781 18.515625 -8.15625 L 18.921875 -8.15625 L 22.359375 -6.375 C 21.710938 -4.132812 20.609375 -2.453125 19.046875 -1.328125 C 17.484375 -0.210938 15.429688 0.34375 12.890625 0.34375 Z M 12.890625 0.34375 "/></g></g></g><g fill="#a052cc" fill-opacity="1"><g transform="translate(415.166097, 124.327329)"><g><path d="M 2.5625 0 L 2.5625 -17.796875 L 6.90625 -17.796875 L 6.90625 -15.140625 L 7.234375 -15.078125 C 7.671875 -16.066406 8.238281 -16.789062 8.9375 -17.25 C 9.632812 -17.71875 10.484375 -17.953125 11.484375 -17.953125 C 12.492188 -17.953125 13.265625 -17.78125 13.796875 -17.4375 L 13.03125 -13.578125 L 12.6875 -13.515625 C 12.394531 -13.628906 12.113281 -13.710938 11.84375 -13.765625 C 11.582031 -13.828125 11.257812 -13.859375 10.875 -13.859375 C 9.625 -13.859375 8.671875 -13.414062 8.015625 -12.53125 C 7.359375 -11.65625 7.03125 -10.253906 7.03125 -8.328125 L 7.03125 0 Z M 2.5625 0 "/></g></g></g><g fill="#a052cc" fill-opacity="1"><g transform="translate(429.119109, 124.327329)"><g><path d="M 17.578125 -7.890625 L 6.140625 -7.890625 C 6.273438 -6.335938 6.71875 -5.207031 7.46875 -4.5 C 8.21875 -3.800781 9.242188 -3.453125 10.546875 -3.453125 C 11.566406 -3.453125 12.394531 -3.640625 13.03125 -4.015625 C 13.664062 -4.398438 14.175781 -4.984375 14.5625 -5.765625 L 14.90625 -5.765625 L 17.875 -3.859375 C 17.289062 -2.609375 16.410156 -1.59375 15.234375 -0.8125 C 14.066406 -0.0390625 12.503906 0.34375 10.546875 0.34375 C 8.710938 0.34375 7.125 -0.00390625 5.78125 -0.703125 C 4.445312 -1.410156 3.414062 -2.453125 2.6875 -3.828125 C 1.957031 -5.210938 1.59375 -6.898438 1.59375 -8.890625 C 1.59375 -10.910156 1.972656 -12.613281 2.734375 -14 C 3.503906 -15.382812 4.539062 -16.414062 5.84375 -17.09375 C 7.144531 -17.78125 8.601562 -18.125 10.21875 -18.125 C 12.738281 -18.125 14.664062 -17.457031 16 -16.125 C 17.34375 -14.789062 18.015625 -12.832031 18.015625 -10.25 C 18.015625 -9.320312 17.984375 -8.597656 17.921875 -8.078125 Z M 13.734375 -10.78125 C 13.691406 -12.132812 13.378906 -13.117188 12.796875 -13.734375 C 12.210938 -14.347656 11.351562 -14.65625 10.21875 -14.65625 C 7.96875 -14.65625 6.640625 -13.363281 6.234375 -10.78125 Z M 13.734375 -10.78125 "/></g></g></g><g fill="#a052cc" fill-opacity="1"><g transform="translate(448.459754, 124.327329)"><g><path d="M 8.328125 0.34375 C 7.109375 0.34375 5.992188 0.203125 4.984375 -0.078125 C 3.972656 -0.367188 3.109375 -0.765625 2.390625 -1.265625 C 1.679688 -1.765625 1.15625 -2.335938 0.8125 -2.984375 L 3.296875 -5.65625 L 3.625 -5.65625 C 4.21875 -4.863281 4.914062 -4.269531 5.71875 -3.875 C 6.53125 -3.476562 7.410156 -3.28125 8.359375 -3.28125 C 9.222656 -3.28125 9.875 -3.429688 10.3125 -3.734375 C 10.757812 -4.046875 10.984375 -4.492188 10.984375 -5.078125 C 10.984375 -5.535156 10.820312 -5.914062 10.5 -6.21875 C 10.1875 -6.519531 9.675781 -6.757812 8.96875 -6.9375 L 6.609375 -7.5 C 4.847656 -7.914062 3.5625 -8.554688 2.75 -9.421875 C 1.9375 -10.285156 1.53125 -11.382812 1.53125 -12.71875 C 1.53125 -13.832031 1.8125 -14.796875 2.375 -15.609375 C 2.9375 -16.429688 3.734375 -17.054688 4.765625 -17.484375 C 5.796875 -17.910156 6.992188 -18.125 8.359375 -18.125 C 9.953125 -18.125 11.273438 -17.890625 12.328125 -17.421875 C 13.390625 -16.960938 14.21875 -16.347656 14.8125 -15.578125 L 12.421875 -13 L 12.09375 -13 C 11.601562 -13.5625 11.046875 -13.96875 10.421875 -14.21875 C 9.804688 -14.476562 9.117188 -14.609375 8.359375 -14.609375 C 6.585938 -14.609375 5.703125 -14.0625 5.703125 -12.96875 C 5.703125 -12.507812 5.863281 -12.132812 6.1875 -11.84375 C 6.519531 -11.550781 7.101562 -11.3125 7.9375 -11.125 L 10.125 -10.640625 C 11.9375 -10.253906 13.257812 -9.632812 14.09375 -8.78125 C 14.925781 -7.925781 15.34375 -6.78125 15.34375 -5.34375 C 15.34375 -4.207031 15.0625 -3.207031 14.5 -2.34375 C 13.9375 -1.488281 13.128906 -0.828125 12.078125 -0.359375 C 11.023438 0.109375 9.773438 0.34375 8.328125 0.34375 Z M 8.328125 0.34375 "/></g></g></g><g fill="#a052cc" fill-opacity="1"><g transform="translate(464.864623, 124.327329)"><g><path d="M 12.28125 -4.234375 L 13.4375 -0.9375 C 12.945312 -0.539062 12.335938 -0.226562 11.609375 0 C 10.878906 0.226562 10.050781 0.34375 9.125 0.34375 C 7.195312 0.34375 5.734375 -0.179688 4.734375 -1.234375 C 3.734375 -2.285156 3.234375 -3.8125 3.234375 -5.8125 L 3.234375 -14.25 L 0.53125 -14.25 L 0.53125 -17.8125 L 3.234375 -17.8125 L 3.234375 -21.28125 L 7.703125 -22 L 7.703125 -17.8125 L 12.75 -17.8125 L 12.75 -14.25 L 7.703125 -14.25 L 7.703125 -6.125 C 7.703125 -5.25 7.882812 -4.609375 8.25 -4.203125 C 8.625 -3.796875 9.160156 -3.59375 9.859375 -3.59375 C 10.648438 -3.59375 11.34375 -3.804688 11.9375 -4.234375 Z M 12.28125 -4.234375 "/></g></g></g><g fill="#a052cc" fill-opacity="1"><g transform="translate(478.688589, 124.327329)"><g/></g></g><g fill="#a052cc" fill-opacity="1"><g transform="translate(486.479696, 124.327329)"><g><path d="M 12.5 0.34375 C 9.25 0.34375 6.835938 -0.425781 5.265625 -1.96875 C 3.703125 -3.519531 2.921875 -5.8125 2.921875 -8.84375 L 2.921875 -23.578125 L 7.484375 -23.578125 L 7.484375 -8.875 C 7.484375 -7.15625 7.894531 -5.863281 8.71875 -5 C 9.550781 -4.132812 10.8125 -3.703125 12.5 -3.703125 C 15.84375 -3.703125 17.515625 -5.425781 17.515625 -8.875 L 17.515625 -23.578125 L 22.078125 -23.578125 L 22.078125 -8.84375 C 22.078125 -5.8125 21.289062 -3.519531 19.71875 -1.96875 C 18.15625 -0.425781 15.75 0.34375 12.5 0.34375 Z M 12.5 0.34375 "/></g></g></g><g fill="#a052cc" fill-opacity="1"><g transform="translate(511.482188, 124.327329)"><g><path d="M 7.1875 -7.828125 L 3.15625 -7.828125 L 2.84375 -23.578125 L 7.515625 -23.578125 Z M 5.171875 0.15625 C 4.617188 0.15625 4.128906 0.046875 3.703125 -0.171875 C 3.273438 -0.398438 2.945312 -0.710938 2.71875 -1.109375 C 2.488281 -1.503906 2.375 -1.953125 2.375 -2.453125 C 2.375 -2.953125 2.488281 -3.40625 2.71875 -3.8125 C 2.945312 -4.21875 3.273438 -4.53125 3.703125 -4.75 C 4.128906 -4.976562 4.617188 -5.09375 5.171875 -5.09375 C 6.015625 -5.09375 6.691406 -4.84375 7.203125 -4.34375 C 7.710938 -3.851562 7.96875 -3.226562 7.96875 -2.46875 C 7.96875 -1.707031 7.710938 -1.078125 7.203125 -0.578125 C 6.691406 -0.0859375 6.015625 0.15625 5.171875 0.15625 Z M 5.171875 0.15625 "/></g></g></g></svg>