<svg xmlns="http://www.w3.org/2000/svg" xmlns:xlink="http://www.w3.org/1999/xlink" zoomAndPan="magnify" preserveAspectRatio="xMidYMid meet" version="1.0" viewBox="45.39 39.07 175.51 64.48"><defs><g/><clipPath id="22d02559f6"><path d="M 67 48.40625 L 99 48.40625 L 99 88 L 67 88 Z M 67 48.40625 " clip-rule="nonzero"/></clipPath><clipPath id="76a8f9fb45"><path d="M 56.351562 55 L 58 55 L 58 77 L 56.351562 77 Z M 56.351562 55 " clip-rule="nonzero"/></clipPath><clipPath id="f6a84fe2f4"><path d="M 109 52 L 110.25 52 L 110.25 63 L 109 63 Z M 109 52 " clip-rule="nonzero"/></clipPath><clipPath id="1058d52e73"><path d="M 109 63 L 110.25 63 L 110.25 75 L 109 75 Z M 109 63 " clip-rule="nonzero"/></clipPath><clipPath id="8d67431209"><path d="M 109 75 L 110.25 75 L 110.25 85 L 109 85 Z M 109 75 " clip-rule="nonzero"/></clipPath><clipPath id="b6135d03af"><path d="M 45.390625 39.070312 L 121 39.070312 L 121 103.445312 L 45.390625 103.445312 Z M 45.390625 39.070312 " clip-rule="nonzero"/></clipPath></defs><g clip-path="url(#22d02559f6)"><path fill="#7d19f3" d="M 98.296875 63.523438 L 98.296875 52.070312 C 98.296875 51.835938 98.105469 51.644531 97.867188 51.644531 C 97.628906 51.644531 97.4375 51.835938 97.4375 52.070312 L 97.4375 61.121094 C 95.652344 57.175781 92.257812 54.109375 88.09375 52.769531 L 88.09375 51.0625 C 88.09375 50.828125 87.902344 50.636719 87.664062 50.636719 C 87.429688 50.636719 87.234375 50.828125 87.234375 51.0625 L 87.234375 52.519531 C 86.003906 52.199219 84.710938 52.03125 83.378906 52.03125 C 83.117188 52.03125 82.859375 52.035156 82.601562 52.050781 L 82.601562 48.835938 C 82.601562 48.597656 82.410156 48.40625 82.171875 48.40625 C 81.9375 48.40625 81.746094 48.597656 81.746094 48.835938 L 81.746094 52.117188 C 81.171875 52.179688 80.609375 52.273438 80.058594 52.394531 L 80.058594 50.671875 C 80.058594 50.433594 79.867188 50.242188 79.628906 50.242188 C 79.394531 50.242188 79.199219 50.433594 79.199219 50.671875 L 79.199219 52.609375 C 77.089844 53.203125 75.164062 54.234375 73.523438 55.601562 L 73.523438 54.171875 C 73.523438 53.9375 73.328125 53.746094 73.09375 53.746094 C 72.855469 53.746094 72.664062 53.9375 72.664062 54.171875 L 72.664062 56.371094 C 70.945312 58.035156 69.609375 60.089844 68.808594 62.394531 L 68.808594 58.441406 C 68.808594 58.207031 68.617188 58.015625 68.378906 58.015625 C 68.144531 58.015625 67.949219 58.207031 67.949219 58.441406 L 67.949219 74.972656 C 67.949219 75.207031 68.144531 75.398438 68.378906 75.398438 C 68.617188 75.398438 68.808594 75.207031 68.808594 74.972656 L 68.808594 72.519531 C 69.65625 74.960938 71.101562 77.125 72.972656 78.835938 L 72.972656 80.558594 C 72.972656 80.796875 73.164062 80.988281 73.398438 80.988281 C 73.636719 80.988281 73.828125 80.796875 73.828125 80.558594 L 73.828125 79.558594 C 75.566406 80.933594 77.605469 81.941406 79.828125 82.46875 L 79.828125 85.199219 C 79.828125 85.433594 80.023438 85.628906 80.257812 85.628906 C 80.496094 85.628906 80.6875 85.433594 80.6875 85.199219 L 80.6875 82.644531 C 81.425781 82.773438 82.179688 82.851562 82.949219 82.875 L 82.949219 87.472656 C 82.949219 87.707031 83.140625 87.902344 83.378906 87.902344 C 83.613281 87.902344 83.804688 87.707031 83.804688 87.472656 L 83.804688 82.875 C 84.988281 82.839844 86.136719 82.679688 87.234375 82.394531 L 87.234375 83.925781 C 87.234375 84.160156 87.425781 84.351562 87.664062 84.351562 C 87.902344 84.351562 88.09375 84.160156 88.09375 83.925781 L 88.09375 82.144531 C 88.8125 81.914062 89.511719 81.628906 90.179688 81.300781 L 90.179688 82.574219 C 90.179688 82.808594 90.371094 83 90.609375 83 C 90.847656 83 91.039062 82.808594 91.039062 82.574219 L 91.039062 80.839844 C 93.84375 79.226562 96.097656 76.757812 97.4375 73.792969 L 97.4375 83.664062 C 97.4375 83.902344 97.628906 84.09375 97.867188 84.09375 C 98.101562 84.09375 98.296875 83.902344 98.296875 83.664062 L 98.296875 71.390625 C 98.625 70.132812 98.804688 68.816406 98.804688 67.457031 C 98.804688 66.097656 98.625 64.78125 98.296875 63.523438 Z M 83.378906 82.027344 C 75.34375 82.027344 68.808594 75.492188 68.808594 67.457031 C 68.808594 59.421875 75.34375 52.886719 83.378906 52.886719 C 91.410156 52.886719 97.949219 59.421875 97.949219 67.457031 C 97.949219 75.492188 91.410156 82.027344 83.378906 82.027344 Z M 83.378906 82.027344 " fill-opacity="1" fill-rule="nonzero"/></g><path fill="#7d19f3" d="M 83.378906 53.746094 C 75.816406 53.746094 69.664062 59.894531 69.664062 67.457031 C 69.664062 75.019531 75.816406 81.171875 83.378906 81.171875 C 90.9375 81.171875 97.089844 75.019531 97.089844 67.457031 C 97.089844 59.894531 90.9375 53.746094 83.378906 53.746094 Z M 83.378906 80.3125 C 76.289062 80.3125 70.523438 74.546875 70.523438 67.457031 C 70.523438 60.367188 76.289062 54.601562 83.378906 54.601562 C 90.464844 54.601562 96.234375 60.367188 96.234375 67.457031 C 96.234375 74.546875 90.464844 80.3125 83.378906 80.3125 Z M 83.378906 80.3125 " fill-opacity="1" fill-rule="nonzero"/><path fill="#7d19f3" d="M 83.378906 70.789062 C 85.601562 70.789062 87.40625 68.980469 87.40625 66.757812 L 87.40625 59.40625 C 87.40625 57.183594 85.597656 55.375 83.378906 55.375 C 81.15625 55.375 79.347656 57.183594 79.347656 59.40625 L 79.347656 66.757812 C 79.347656 68.980469 81.15625 70.789062 83.378906 70.789062 Z M 80.207031 62.425781 L 86.550781 62.425781 L 86.550781 63.6875 L 80.207031 63.6875 Z M 83.378906 56.234375 C 85.128906 56.234375 86.550781 57.65625 86.550781 59.40625 L 86.550781 61.570312 L 80.207031 61.570312 L 80.207031 59.40625 C 80.207031 57.65625 81.628906 56.234375 83.378906 56.234375 Z M 80.207031 64.546875 L 86.550781 64.546875 L 86.550781 66.757812 C 86.550781 68.507812 85.128906 69.929688 83.378906 69.929688 C 81.628906 69.929688 80.207031 68.507812 80.207031 66.757812 Z M 80.207031 64.546875 " fill-opacity="1" fill-rule="nonzero"/><path fill="#7d19f3" d="M 89.980469 62.542969 C 89.164062 62.542969 88.5 63.203125 88.5 64.019531 L 88.5 66.414062 C 88.5 67.78125 87.96875 69.066406 87 70.035156 C 86.03125 71.003906 84.746094 71.535156 83.378906 71.535156 C 82.007812 71.535156 80.722656 71.003906 79.753906 70.035156 C 78.789062 69.066406 78.253906 67.78125 78.253906 66.414062 L 78.253906 64.019531 C 78.253906 63.203125 77.59375 62.542969 76.777344 62.542969 C 75.960938 62.542969 75.296875 63.203125 75.296875 64.019531 L 75.296875 66.152344 C 75.296875 69.800781 77.707031 72.953125 81.195312 73.925781 L 81.195312 75.597656 L 79.089844 75.597656 C 78.855469 75.597656 78.664062 75.789062 78.664062 76.027344 L 78.664062 78.171875 C 78.664062 78.40625 78.855469 78.597656 79.089844 78.597656 L 87.664062 78.597656 C 87.898438 78.597656 88.09375 78.40625 88.09375 78.171875 L 88.09375 76.027344 C 88.09375 75.789062 87.898438 75.597656 87.664062 75.597656 L 85.558594 75.597656 L 85.558594 73.925781 C 89.046875 72.953125 91.457031 69.804688 91.457031 66.152344 L 91.457031 64.019531 C 91.457031 63.203125 90.792969 62.542969 89.980469 62.542969 Z M 90.601562 66.152344 C 90.601562 69.515625 88.308594 72.40625 85.03125 73.175781 C 84.839844 73.21875 84.703125 73.390625 84.703125 73.589844 L 84.703125 76.027344 C 84.703125 76.265625 84.894531 76.457031 85.128906 76.457031 L 87.234375 76.457031 L 87.234375 77.742188 L 79.519531 77.742188 L 79.519531 76.457031 L 81.625 76.457031 C 81.863281 76.457031 82.054688 76.265625 82.054688 76.027344 L 82.054688 73.589844 C 82.054688 73.394531 81.917969 73.21875 81.726562 73.175781 C 78.445312 72.40625 76.15625 69.515625 76.15625 66.152344 L 76.15625 64.019531 C 76.15625 63.675781 76.433594 63.398438 76.777344 63.398438 C 77.121094 63.398438 77.398438 63.675781 77.398438 64.019531 L 77.398438 66.414062 C 77.398438 68.011719 78.019531 69.511719 79.152344 70.640625 C 80.28125 71.769531 81.78125 72.390625 83.378906 72.390625 C 84.976562 72.390625 86.476562 71.769531 87.605469 70.640625 C 88.738281 69.511719 89.359375 68.011719 89.359375 66.414062 L 89.359375 64.019531 C 89.359375 63.675781 89.636719 63.398438 89.980469 63.398438 C 90.324219 63.398438 90.601562 63.675781 90.601562 64.019531 Z M 90.601562 66.152344 " fill-opacity="1" fill-rule="nonzero"/><path fill="#7d19f3" d="M 68.378906 76.140625 C 68.144531 76.140625 67.949219 76.332031 67.949219 76.570312 L 67.949219 80.4375 C 67.949219 80.675781 68.144531 80.867188 68.378906 80.867188 C 68.617188 80.867188 68.808594 80.675781 68.808594 80.4375 L 68.808594 76.570312 C 68.808594 76.332031 68.617188 76.140625 68.378906 76.140625 Z M 68.378906 76.140625 " fill-opacity="1" fill-rule="nonzero"/><path fill="#7d19f3" d="M 66.550781 51.472656 C 66.3125 51.472656 66.121094 51.664062 66.121094 51.902344 L 66.121094 83.765625 C 66.121094 84.003906 66.3125 84.195312 66.550781 84.195312 C 66.785156 84.195312 66.980469 84.003906 66.980469 83.765625 L 66.980469 51.902344 C 66.980469 51.664062 66.789062 51.472656 66.550781 51.472656 Z M 66.550781 51.472656 " fill-opacity="1" fill-rule="nonzero"/><path fill="#7d19f3" d="M 64.742188 54.042969 C 64.507812 54.042969 64.316406 54.234375 64.316406 54.472656 L 64.316406 59.273438 C 64.316406 59.511719 64.507812 59.703125 64.742188 59.703125 C 64.980469 59.703125 65.171875 59.511719 65.171875 59.273438 L 65.171875 54.472656 C 65.171875 54.234375 64.980469 54.042969 64.742188 54.042969 Z M 64.742188 54.042969 " fill-opacity="1" fill-rule="nonzero"/><path fill="#7d19f3" d="M 64.742188 60.929688 C 64.507812 60.929688 64.316406 61.125 64.316406 61.359375 L 64.316406 76.945312 C 64.316406 77.183594 64.507812 77.375 64.742188 77.375 C 64.980469 77.375 65.171875 77.183594 65.171875 76.945312 L 65.171875 61.359375 C 65.171875 61.121094 64.980469 60.929688 64.742188 60.929688 Z M 64.742188 60.929688 " fill-opacity="1" fill-rule="nonzero"/><path fill="#7d19f3" d="M 64.742188 78.484375 C 64.507812 78.484375 64.316406 78.675781 64.316406 78.914062 L 64.316406 81.195312 C 64.316406 81.433594 64.507812 81.625 64.742188 81.625 C 64.980469 81.625 65.171875 81.433594 65.171875 81.195312 L 65.171875 78.914062 C 65.171875 78.675781 64.980469 78.484375 64.742188 78.484375 Z M 64.742188 78.484375 " fill-opacity="1" fill-rule="nonzero"/><path fill="#7d19f3" d="M 62.984375 57.621094 C 62.75 57.621094 62.558594 57.8125 62.558594 58.050781 L 62.558594 75.421875 C 62.558594 75.65625 62.75 75.847656 62.984375 75.847656 C 63.222656 75.847656 63.414062 75.65625 63.414062 75.421875 L 63.414062 58.050781 C 63.414062 57.8125 63.222656 57.621094 62.984375 57.621094 Z M 62.984375 57.621094 " fill-opacity="1" fill-rule="nonzero"/><path fill="#7d19f3" d="M 61.332031 54.042969 C 61.097656 54.042969 60.90625 54.234375 60.90625 54.472656 L 60.90625 81.195312 C 60.90625 81.433594 61.097656 81.625 61.332031 81.625 C 61.570312 81.625 61.761719 81.433594 61.761719 81.195312 L 61.761719 54.472656 C 61.761719 54.234375 61.570312 54.042969 61.332031 54.042969 Z M 61.332031 54.042969 " fill-opacity="1" fill-rule="nonzero"/><path fill="#7d19f3" d="M 59.75 60.746094 C 59.515625 60.746094 59.324219 60.9375 59.324219 61.175781 L 59.324219 73.027344 C 59.324219 73.265625 59.515625 73.457031 59.75 73.457031 C 59.988281 73.457031 60.179688 73.265625 60.179688 73.027344 L 60.179688 61.175781 C 60.179688 60.9375 59.988281 60.746094 59.75 60.746094 Z M 59.75 60.746094 " fill-opacity="1" fill-rule="nonzero"/><g clip-path="url(#76a8f9fb45)"><path fill="#7d19f3" d="M 56.808594 55.375 C 56.574219 55.375 56.378906 55.570312 56.378906 55.804688 L 56.378906 76.570312 C 56.378906 76.804688 56.574219 77 56.808594 77 C 57.046875 77 57.238281 76.804688 57.238281 76.570312 L 57.238281 55.804688 C 57.238281 55.570312 57.046875 55.375 56.808594 55.375 Z M 56.808594 55.375 " fill-opacity="1" fill-rule="nonzero"/></g><path fill="#7d19f3" d="M 58.171875 63.292969 C 57.9375 63.292969 57.742188 63.484375 57.742188 63.722656 L 57.742188 69.984375 C 57.742188 70.21875 57.9375 70.410156 58.171875 70.410156 C 58.410156 70.410156 58.601562 70.21875 58.601562 69.984375 L 58.601562 63.722656 C 58.601562 63.484375 58.410156 63.292969 58.171875 63.292969 Z M 58.171875 63.292969 " fill-opacity="1" fill-rule="nonzero"/><path fill="#7d19f3" d="M 99.757812 56.113281 C 99.523438 56.113281 99.332031 56.304688 99.332031 56.539062 L 99.332031 78.171875 C 99.332031 78.40625 99.523438 78.597656 99.757812 78.597656 C 99.996094 78.597656 100.1875 78.40625 100.1875 78.171875 L 100.1875 56.539062 C 100.1875 56.304688 99.996094 56.113281 99.757812 56.113281 Z M 99.757812 56.113281 " fill-opacity="1" fill-rule="nonzero"/><path fill="#7d19f3" d="M 101.148438 61.570312 C 100.910156 61.570312 100.71875 61.761719 100.71875 62 L 100.71875 71.191406 C 100.71875 71.425781 100.910156 71.617188 101.148438 71.617188 C 101.382812 71.617188 101.574219 71.425781 101.574219 71.191406 L 101.574219 62 C 101.574219 61.761719 101.382812 61.570312 101.148438 61.570312 Z M 101.148438 61.570312 " fill-opacity="1" fill-rule="nonzero"/><path fill="#7d19f3" d="M 104.003906 62.777344 C 103.765625 62.777344 103.574219 62.96875 103.574219 63.207031 L 103.574219 69.820312 C 103.574219 70.054688 103.765625 70.246094 104.003906 70.246094 C 104.238281 70.246094 104.429688 70.054688 104.429688 69.820312 L 104.429688 63.207031 C 104.429688 62.96875 104.238281 62.777344 104.003906 62.777344 Z M 104.003906 62.777344 " fill-opacity="1" fill-rule="nonzero"/><path fill="#7d19f3" d="M 105.492188 57.945312 C 105.257812 57.949219 105.058594 58.132812 105.058594 58.367188 C 104.785156 77.738281 105.011719 77.96875 105.175781 78.136719 C 105.253906 78.21875 105.371094 78.265625 105.484375 78.265625 C 105.722656 78.265625 105.914062 78.074219 105.914062 77.835938 C 105.914062 77.773438 105.898438 77.710938 105.875 77.65625 C 105.71875 76.621094 105.8125 65.628906 105.914062 58.382812 C 105.917969 58.144531 105.726562 57.949219 105.492188 57.945312 Z M 105.492188 57.945312 " fill-opacity="1" fill-rule="nonzero"/><path fill="#7d19f3" d="M 107.035156 62.46875 C 106.796875 62.46875 106.605469 62.660156 106.605469 62.898438 L 106.605469 69.820312 C 106.605469 70.054688 106.796875 70.246094 107.035156 70.246094 C 107.273438 70.246094 107.464844 70.054688 107.464844 69.820312 L 107.464844 62.898438 C 107.464844 62.660156 107.273438 62.46875 107.035156 62.46875 Z M 107.035156 62.46875 " fill-opacity="1" fill-rule="nonzero"/><path fill="#7d19f3" d="M 108.464844 54.8125 C 108.230469 54.8125 108.039062 55.003906 108.039062 55.238281 L 108.039062 80.183594 C 108.039062 80.421875 108.230469 80.613281 108.464844 80.613281 C 108.703125 80.613281 108.894531 80.421875 108.894531 80.183594 L 108.894531 55.238281 C 108.894531 55.003906 108.703125 54.8125 108.464844 54.8125 Z M 108.464844 54.8125 " fill-opacity="1" fill-rule="nonzero"/><g clip-path="url(#f6a84fe2f4)"><path fill="#7d19f3" d="M 109.945312 52.457031 C 109.710938 52.457031 109.519531 52.652344 109.519531 52.886719 L 109.519531 62.296875 C 109.519531 62.535156 109.710938 62.726562 109.945312 62.726562 C 110.183594 62.726562 110.375 62.535156 110.375 62.296875 L 110.375 52.886719 C 110.375 52.652344 110.183594 52.457031 109.945312 52.457031 Z M 109.945312 52.457031 " fill-opacity="1" fill-rule="nonzero"/></g><g clip-path="url(#1058d52e73)"><path fill="#7d19f3" d="M 109.945312 63.546875 C 109.710938 63.546875 109.519531 63.738281 109.519531 63.976562 L 109.519531 74.40625 C 109.519531 74.644531 109.710938 74.835938 109.945312 74.835938 C 110.183594 74.835938 110.375 74.644531 110.375 74.40625 L 110.375 63.976562 C 110.375 63.738281 110.183594 63.546875 109.945312 63.546875 Z M 109.945312 63.546875 " fill-opacity="1" fill-rule="nonzero"/></g><g clip-path="url(#8d67431209)"><path fill="#7d19f3" d="M 109.945312 75.898438 C 109.710938 75.898438 109.519531 76.089844 109.519531 76.324219 L 109.519531 84.527344 C 109.519531 84.761719 109.710938 84.953125 109.945312 84.953125 C 110.183594 84.953125 110.375 84.761719 110.375 84.527344 L 110.375 76.324219 C 110.375 76.089844 110.183594 75.898438 109.945312 75.898438 Z M 109.945312 75.898438 " fill-opacity="1" fill-rule="nonzero"/></g><path fill="#7d19f3" d="M 102.59375 53.566406 C 102.359375 53.566406 102.167969 53.757812 102.167969 53.996094 L 102.167969 63.207031 C 102.167969 63.441406 102.359375 63.632812 102.59375 63.632812 C 102.832031 63.632812 103.023438 63.441406 103.023438 63.207031 L 103.023438 53.996094 C 103.023438 53.757812 102.832031 53.566406 102.59375 53.566406 Z M 102.59375 53.566406 " fill-opacity="1" fill-rule="nonzero"/><path fill="#7d19f3" d="M 102.59375 64.65625 C 102.359375 64.65625 102.167969 64.847656 102.167969 65.085938 L 102.167969 70.207031 C 102.167969 70.445312 102.359375 70.636719 102.59375 70.636719 C 102.832031 70.636719 103.023438 70.445312 103.023438 70.207031 L 103.023438 65.085938 C 103.023438 64.847656 102.832031 64.65625 102.59375 64.65625 Z M 102.59375 64.65625 " fill-opacity="1" fill-rule="nonzero"/><path fill="#7d19f3" d="M 102.59375 71.457031 C 102.359375 71.457031 102.167969 71.648438 102.167969 71.882812 L 102.167969 77.28125 C 102.167969 77.519531 102.359375 77.710938 102.59375 77.710938 C 102.832031 77.710938 103.023438 77.519531 103.023438 77.28125 L 103.023438 71.882812 C 103.023438 71.648438 102.832031 71.457031 102.59375 71.457031 Z M 102.59375 71.457031 " fill-opacity="1" fill-rule="nonzero"/><path fill="#7d19f3" d="M 102.59375 78.722656 C 102.359375 78.722656 102.167969 78.914062 102.167969 79.152344 L 102.167969 81.585938 C 102.167969 81.824219 102.359375 82.015625 102.59375 82.015625 C 102.832031 82.015625 103.023438 81.824219 103.023438 81.585938 L 103.023438 79.152344 C 103.023438 78.914062 102.832031 78.722656 102.59375 78.722656 Z M 102.59375 78.722656 " fill-opacity="1" fill-rule="nonzero"/><g clip-path="url(#b6135d03af)"><path fill="#7d19f3" d="M 52.988281 103.550781 C 52.535156 103.550781 52.117188 103.296875 51.910156 102.886719 C 51.683594 102.4375 51.757812 101.898438 52.09375 101.53125 C 55.660156 97.609375 58.199219 94.210938 58.929688 90.582031 C 50.328125 85.019531 45.414062 76.921875 45.414062 68.246094 C 45.414062 60.390625 49.40625 53.023438 56.65625 47.507812 C 63.804688 42.066406 73.296875 39.070312 83.375 39.070312 C 93.457031 39.070312 102.945312 42.066406 110.097656 47.507812 C 117.347656 53.023438 121.339844 60.390625 121.339844 68.246094 C 121.339844 76.105469 117.347656 83.46875 110.097656 88.988281 C 102.945312 94.429688 93.457031 97.425781 83.375 97.425781 C 80.820312 97.425781 78.257812 97.226562 75.757812 96.835938 C 70.15625 100.433594 62.9375 102.566406 53.109375 103.546875 C 53.070312 103.550781 53.027344 103.550781 52.988281 103.550781 Z M 83.375 41.488281 C 63.777344 41.488281 47.832031 53.492188 47.832031 68.246094 C 47.832031 76.292969 52.589844 83.839844 60.886719 88.957031 C 61.289062 89.207031 61.511719 89.667969 61.449219 90.140625 C 60.933594 94.136719 58.574219 97.671875 55.972656 100.78125 C 64.046875 99.699219 70.089844 97.699219 74.824219 94.5625 C 75.078125 94.394531 75.386719 94.328125 75.6875 94.375 C 78.207031 94.796875 80.792969 95.007812 83.375 95.007812 C 102.976562 95.007812 118.921875 83.003906 118.921875 68.246094 C 118.921875 53.492188 102.976562 41.488281 83.375 41.488281 Z M 83.375 41.488281 " fill-opacity="1" fill-rule="nonzero"/></g><g fill="#7d19f3" fill-opacity="1"><g transform="translate(127.810299, 76.710666)"><g><path d="M 5.875 0.15625 C 4.882812 0.15625 4.007812 -0.046875 3.25 -0.453125 C 2.5 -0.867188 1.910156 -1.488281 1.484375 -2.3125 C 1.054688 -3.144531 0.84375 -4.164062 0.84375 -5.375 C 0.84375 -6.59375 1.054688 -7.613281 1.484375 -8.4375 C 1.910156 -9.269531 2.5 -9.890625 3.25 -10.296875 C 4.007812 -10.710938 4.882812 -10.921875 5.875 -10.921875 C 6.914062 -10.921875 7.796875 -10.71875 8.515625 -10.3125 C 9.242188 -9.90625 9.765625 -9.285156 10.078125 -8.453125 L 8.515625 -7.515625 L 8.328125 -7.515625 C 8.097656 -8.078125 7.785156 -8.476562 7.390625 -8.71875 C 6.992188 -8.957031 6.488281 -9.078125 5.875 -9.078125 C 4.988281 -9.078125 4.296875 -8.78125 3.796875 -8.1875 C 3.296875 -7.601562 3.046875 -6.664062 3.046875 -5.375 C 3.046875 -4.09375 3.296875 -3.15625 3.796875 -2.5625 C 4.296875 -1.976562 4.988281 -1.6875 5.875 -1.6875 C 7.28125 -1.6875 8.140625 -2.363281 8.453125 -3.71875 L 8.640625 -3.71875 L 10.203125 -2.90625 C 9.910156 -1.882812 9.40625 -1.117188 8.6875 -0.609375 C 7.976562 -0.0976562 7.039062 0.15625 5.875 0.15625 Z M 5.875 0.15625 "/></g></g></g><g fill="#7d19f3" fill-opacity="1"><g transform="translate(138.366442, 76.710666)"><g><path d="M 1.171875 0 L 1.171875 -11.375 L 3.203125 -11.375 L 3.203125 -7.0625 L 3.359375 -7.03125 C 3.628906 -7.425781 3.960938 -7.734375 4.359375 -7.953125 C 4.753906 -8.171875 5.226562 -8.28125 5.78125 -8.28125 C 7.570312 -8.28125 8.46875 -7.265625 8.46875 -5.234375 L 8.46875 0 L 6.421875 0 L 6.421875 -4.96875 C 6.421875 -5.519531 6.3125 -5.921875 6.09375 -6.171875 C 5.875 -6.421875 5.53125 -6.546875 5.0625 -6.546875 C 4.5 -6.546875 4.046875 -6.351562 3.703125 -5.96875 C 3.367188 -5.59375 3.203125 -5.003906 3.203125 -4.203125 L 3.203125 0 Z M 1.171875 0 "/></g></g></g><g fill="#7d19f3" fill-opacity="1"><g transform="translate(147.877276, 76.710666)"><g><path d="M 3.171875 0.15625 C 2.648438 0.15625 2.195312 0.0625 1.8125 -0.125 C 1.425781 -0.320312 1.128906 -0.601562 0.921875 -0.96875 C 0.722656 -1.34375 0.625 -1.789062 0.625 -2.3125 C 0.625 -2.789062 0.722656 -3.191406 0.921875 -3.515625 C 1.128906 -3.847656 1.445312 -4.117188 1.875 -4.328125 C 2.3125 -4.535156 2.878906 -4.695312 3.578125 -4.8125 C 4.066406 -4.882812 4.4375 -4.96875 4.6875 -5.0625 C 4.9375 -5.15625 5.101562 -5.257812 5.1875 -5.375 C 5.28125 -5.5 5.328125 -5.648438 5.328125 -5.828125 C 5.328125 -6.085938 5.234375 -6.285156 5.046875 -6.421875 C 4.867188 -6.566406 4.570312 -6.640625 4.15625 -6.640625 C 3.695312 -6.640625 3.265625 -6.535156 2.859375 -6.328125 C 2.453125 -6.128906 2.097656 -5.863281 1.796875 -5.53125 L 1.65625 -5.53125 L 0.796875 -6.828125 C 1.210938 -7.285156 1.71875 -7.640625 2.3125 -7.890625 C 2.90625 -8.148438 3.550781 -8.28125 4.25 -8.28125 C 5.332031 -8.28125 6.113281 -8.050781 6.59375 -7.59375 C 7.070312 -7.132812 7.3125 -6.484375 7.3125 -5.640625 L 7.3125 -2.125 C 7.3125 -1.757812 7.472656 -1.578125 7.796875 -1.578125 C 7.910156 -1.578125 8.03125 -1.597656 8.15625 -1.640625 L 8.25 -1.609375 L 8.40625 -0.1875 C 8.289062 -0.113281 8.128906 -0.0507812 7.921875 0 C 7.722656 0.0390625 7.503906 0.0625 7.265625 0.0625 C 6.773438 0.0625 6.394531 -0.03125 6.125 -0.21875 C 5.851562 -0.40625 5.660156 -0.695312 5.546875 -1.09375 L 5.390625 -1.109375 C 4.992188 -0.265625 4.253906 0.15625 3.171875 0.15625 Z M 3.8125 -1.375 C 4.28125 -1.375 4.65625 -1.53125 4.9375 -1.84375 C 5.21875 -2.15625 5.359375 -2.597656 5.359375 -3.171875 L 5.359375 -3.984375 L 5.234375 -4.015625 C 5.109375 -3.921875 4.945312 -3.835938 4.75 -3.765625 C 4.550781 -3.703125 4.265625 -3.640625 3.890625 -3.578125 C 3.441406 -3.503906 3.117188 -3.378906 2.921875 -3.203125 C 2.734375 -3.023438 2.640625 -2.769531 2.640625 -2.4375 C 2.640625 -2.09375 2.742188 -1.828125 2.953125 -1.640625 C 3.160156 -1.460938 3.445312 -1.375 3.8125 -1.375 Z M 3.8125 -1.375 "/></g></g></g><g fill="#7d19f3" fill-opacity="1"><g transform="translate(156.438503, 76.710666)"><g><path d="M 5.609375 -1.9375 L 6.140625 -0.421875 C 5.910156 -0.242188 5.628906 -0.101562 5.296875 0 C 4.960938 0.101562 4.585938 0.15625 4.171875 0.15625 C 3.285156 0.15625 2.613281 -0.0820312 2.15625 -0.5625 C 1.707031 -1.039062 1.484375 -1.738281 1.484375 -2.65625 L 1.484375 -6.515625 L 0.25 -6.515625 L 0.25 -8.125 L 1.484375 -8.125 L 1.484375 -9.71875 L 3.515625 -10.046875 L 3.515625 -8.125 L 5.828125 -8.125 L 5.828125 -6.515625 L 3.515625 -6.515625 L 3.515625 -2.796875 C 3.515625 -2.390625 3.597656 -2.09375 3.765625 -1.90625 C 3.929688 -1.726562 4.175781 -1.640625 4.5 -1.640625 C 4.863281 -1.640625 5.179688 -1.738281 5.453125 -1.9375 Z M 5.609375 -1.9375 "/></g></g></g><g fill="#7d19f3" fill-opacity="1"><g transform="translate(162.747164, 76.710666)"><g><path d="M 5.875 0.15625 C 4.882812 0.15625 4.007812 -0.046875 3.25 -0.453125 C 2.5 -0.867188 1.910156 -1.488281 1.484375 -2.3125 C 1.054688 -3.144531 0.84375 -4.164062 0.84375 -5.375 C 0.84375 -6.59375 1.054688 -7.613281 1.484375 -8.4375 C 1.910156 -9.269531 2.5 -9.890625 3.25 -10.296875 C 4.007812 -10.710938 4.882812 -10.921875 5.875 -10.921875 C 6.914062 -10.921875 7.796875 -10.71875 8.515625 -10.3125 C 9.242188 -9.90625 9.765625 -9.285156 10.078125 -8.453125 L 8.515625 -7.515625 L 8.328125 -7.515625 C 8.097656 -8.078125 7.785156 -8.476562 7.390625 -8.71875 C 6.992188 -8.957031 6.488281 -9.078125 5.875 -9.078125 C 4.988281 -9.078125 4.296875 -8.78125 3.796875 -8.1875 C 3.296875 -7.601562 3.046875 -6.664062 3.046875 -5.375 C 3.046875 -4.09375 3.296875 -3.15625 3.796875 -2.5625 C 4.296875 -1.976562 4.988281 -1.6875 5.875 -1.6875 C 7.28125 -1.6875 8.140625 -2.363281 8.453125 -3.71875 L 8.640625 -3.71875 L 10.203125 -2.90625 C 9.910156 -1.882812 9.40625 -1.117188 8.6875 -0.609375 C 7.976562 -0.0976562 7.039062 0.15625 5.875 0.15625 Z M 5.875 0.15625 "/></g></g></g><g fill="#7d19f3" fill-opacity="1"><g transform="translate(173.303307, 76.710666)"><g><path d="M 1.171875 0 L 1.171875 -8.125 L 3.15625 -8.125 L 3.15625 -6.90625 L 3.3125 -6.890625 C 3.5 -7.335938 3.753906 -7.664062 4.078125 -7.875 C 4.398438 -8.082031 4.785156 -8.1875 5.234375 -8.1875 C 5.703125 -8.1875 6.054688 -8.109375 6.296875 -7.953125 L 5.953125 -6.203125 L 5.796875 -6.171875 C 5.660156 -6.222656 5.53125 -6.257812 5.40625 -6.28125 C 5.289062 -6.3125 5.144531 -6.328125 4.96875 -6.328125 C 4.394531 -6.328125 3.957031 -6.125 3.65625 -5.71875 C 3.351562 -5.320312 3.203125 -4.679688 3.203125 -3.796875 L 3.203125 0 Z M 1.171875 0 "/></g></g></g><g fill="#7d19f3" fill-opacity="1"><g transform="translate(179.670859, 76.710666)"><g><path d="M 8.03125 -3.59375 L 2.8125 -3.59375 C 2.863281 -2.894531 3.0625 -2.382812 3.40625 -2.0625 C 3.75 -1.738281 4.21875 -1.578125 4.8125 -1.578125 C 5.28125 -1.578125 5.660156 -1.660156 5.953125 -1.828125 C 6.242188 -2.003906 6.472656 -2.269531 6.640625 -2.625 L 6.796875 -2.625 L 8.15625 -1.765625 C 7.894531 -1.191406 7.492188 -0.726562 6.953125 -0.375 C 6.421875 -0.0195312 5.707031 0.15625 4.8125 0.15625 C 3.976562 0.15625 3.253906 0 2.640625 -0.3125 C 2.023438 -0.632812 1.550781 -1.109375 1.21875 -1.734375 C 0.894531 -2.367188 0.734375 -3.144531 0.734375 -4.0625 C 0.734375 -4.976562 0.90625 -5.753906 1.25 -6.390625 C 1.601562 -7.023438 2.078125 -7.5 2.671875 -7.8125 C 3.265625 -8.125 3.929688 -8.28125 4.671875 -8.28125 C 5.816406 -8.28125 6.691406 -7.972656 7.296875 -7.359375 C 7.910156 -6.753906 8.21875 -5.863281 8.21875 -4.6875 C 8.21875 -4.257812 8.203125 -3.925781 8.171875 -3.6875 Z M 6.265625 -4.921875 C 6.253906 -5.535156 6.113281 -5.984375 5.84375 -6.265625 C 5.570312 -6.546875 5.179688 -6.6875 4.671875 -6.6875 C 3.640625 -6.6875 3.03125 -6.097656 2.84375 -4.921875 Z M 6.265625 -4.921875 "/></g></g></g><g fill="#7d19f3" fill-opacity="1"><g transform="translate(188.497093, 76.710666)"><g><path d="M 3.796875 0.15625 C 3.242188 0.15625 2.734375 0.09375 2.265625 -0.03125 C 1.804688 -0.164062 1.414062 -0.347656 1.09375 -0.578125 C 0.769531 -0.804688 0.53125 -1.066406 0.375 -1.359375 L 1.5 -2.578125 L 1.65625 -2.578125 C 1.925781 -2.222656 2.242188 -1.953125 2.609375 -1.765625 C 2.984375 -1.585938 3.382812 -1.5 3.8125 -1.5 C 4.207031 -1.5 4.503906 -1.566406 4.703125 -1.703125 C 4.910156 -1.847656 5.015625 -2.050781 5.015625 -2.3125 C 5.015625 -2.519531 4.941406 -2.691406 4.796875 -2.828125 C 4.648438 -2.972656 4.414062 -3.085938 4.09375 -3.171875 L 3.015625 -3.421875 C 2.210938 -3.609375 1.625 -3.898438 1.25 -4.296875 C 0.882812 -4.691406 0.703125 -5.195312 0.703125 -5.8125 C 0.703125 -6.3125 0.828125 -6.75 1.078125 -7.125 C 1.335938 -7.5 1.703125 -7.785156 2.171875 -7.984375 C 2.640625 -8.179688 3.1875 -8.28125 3.8125 -8.28125 C 4.539062 -8.28125 5.144531 -8.171875 5.625 -7.953125 C 6.113281 -7.742188 6.492188 -7.460938 6.765625 -7.109375 L 5.671875 -5.9375 L 5.515625 -5.9375 C 5.296875 -6.1875 5.046875 -6.367188 4.765625 -6.484375 C 4.484375 -6.609375 4.164062 -6.671875 3.8125 -6.671875 C 3.007812 -6.671875 2.609375 -6.421875 2.609375 -5.921875 C 2.609375 -5.710938 2.679688 -5.539062 2.828125 -5.40625 C 2.984375 -5.269531 3.25 -5.160156 3.625 -5.078125 L 4.625 -4.859375 C 5.445312 -4.679688 6.046875 -4.394531 6.421875 -4 C 6.804688 -3.613281 7 -3.09375 7 -2.4375 C 7 -1.914062 6.867188 -1.457031 6.609375 -1.0625 C 6.359375 -0.675781 5.992188 -0.375 5.515625 -0.15625 C 5.035156 0.0507812 4.460938 0.15625 3.796875 0.15625 Z M 3.796875 0.15625 "/></g></g></g><g fill="#7d19f3" fill-opacity="1"><g transform="translate(195.983566, 76.710666)"><g><path d="M 5.609375 -1.9375 L 6.140625 -0.421875 C 5.910156 -0.242188 5.628906 -0.101562 5.296875 0 C 4.960938 0.101562 4.585938 0.15625 4.171875 0.15625 C 3.285156 0.15625 2.613281 -0.0820312 2.15625 -0.5625 C 1.707031 -1.039062 1.484375 -1.738281 1.484375 -2.65625 L 1.484375 -6.515625 L 0.25 -6.515625 L 0.25 -8.125 L 1.484375 -8.125 L 1.484375 -9.71875 L 3.515625 -10.046875 L 3.515625 -8.125 L 5.828125 -8.125 L 5.828125 -6.515625 L 3.515625 -6.515625 L 3.515625 -2.796875 C 3.515625 -2.390625 3.597656 -2.09375 3.765625 -1.90625 C 3.929688 -1.726562 4.175781 -1.640625 4.5 -1.640625 C 4.863281 -1.640625 5.179688 -1.738281 5.453125 -1.9375 Z M 5.609375 -1.9375 "/></g></g></g><g fill="#7d19f3" fill-opacity="1"><g transform="translate(202.292227, 76.710666)"><g/></g></g><g fill="#7d19f3" fill-opacity="1"><g transform="translate(205.847752, 76.710666)"><g><path d="M 5.703125 0.15625 C 4.222656 0.15625 3.125 -0.191406 2.40625 -0.890625 C 1.6875 -1.597656 1.328125 -2.644531 1.328125 -4.03125 L 1.328125 -10.765625 L 3.421875 -10.765625 L 3.421875 -4.046875 C 3.421875 -3.265625 3.609375 -2.675781 3.984375 -2.28125 C 4.359375 -1.882812 4.929688 -1.6875 5.703125 -1.6875 C 7.234375 -1.6875 8 -2.472656 8 -4.046875 L 8 -10.765625 L 10.078125 -10.765625 L 10.078125 -4.03125 C 10.078125 -2.644531 9.71875 -1.597656 9 -0.890625 C 8.28125 -0.191406 7.179688 0.15625 5.703125 0.15625 Z M 5.703125 0.15625 "/></g></g></g><g fill="#7d19f3" fill-opacity="1"><g transform="translate(217.257808, 76.710666)"><g><path d="M 3.28125 -3.578125 L 1.4375 -3.578125 L 1.296875 -10.765625 L 3.4375 -10.765625 Z M 2.359375 0.078125 C 2.109375 0.078125 1.882812 0.0234375 1.6875 -0.078125 C 1.5 -0.179688 1.347656 -0.320312 1.234375 -0.5 C 1.128906 -0.6875 1.078125 -0.894531 1.078125 -1.125 C 1.078125 -1.351562 1.128906 -1.554688 1.234375 -1.734375 C 1.347656 -1.921875 1.5 -2.066406 1.6875 -2.171875 C 1.882812 -2.273438 2.109375 -2.328125 2.359375 -2.328125 C 2.742188 -2.328125 3.050781 -2.210938 3.28125 -1.984375 C 3.519531 -1.765625 3.640625 -1.476562 3.640625 -1.125 C 3.640625 -0.78125 3.519531 -0.492188 3.28125 -0.265625 C 3.050781 -0.0351562 2.742188 0.078125 2.359375 0.078125 Z M 2.359375 0.078125 "/></g></g></g></svg>